<svg xmlns="http://www.w3.org/2000/svg" viewBox="0 0 289.86 173.47"><defs><style>.cls-1{fill:#9bb835;}</style></defs><g id="Ebene_2" data-name="Ebene 2"><g id="Ebene_1-2" data-name="Ebene 1"><path class="cls-1" d="M124.72,41.08c-3.9,4.39-6.48,9.42-9.79,15.36-.55,1-1.22,2.1-1.92,3.26.94,2,1.92,3.9,2.91,5.84A43.91,43.91,0,0,1,128.73,63Q127.22,52,124.72,41.08Z"/><path class="cls-1" d="M129.3,88.6c.48-1.24.95-2.47,1.4-3.69,0-1,0-1.91-.09-2.86q-.47-8-1.45-15.85h-.1a39.11,39.11,0,0,0-11.62,2.27q3.11,5.86,6.48,11.64C125.59,83,127.48,85.78,129.3,88.6Z"/><path class="cls-1" d="M112.1,54.87l1.17-2.12c3.18-5.76,6-10.88,10.56-15.43-1.72-7-3.79-14-7.42-20.47a26.8,26.8,0,0,0-5.55-7,6.42,6.42,0,0,0-10.47,2.45,12.37,12.37,0,0,0-.8,3.54c-.45,5.23.64,10.29,2.12,15.29a183.61,183.61,0,0,0,9.61,25.1C111.6,55.74,111.86,55.29,112.1,54.87Z"/><path class="cls-1" d="M137.63,19.45a6.7,6.7,0,0,1,5.56-2.8h0a6.64,6.64,0,0,1,1.93.29,6.56,6.56,0,0,1,4,3.29c0,.1.1.2.14.3a7,7,0,0,1,3-.67,7.1,7.1,0,0,1,1.95.31,56.55,56.55,0,0,0-1.2-9A25.14,25.14,0,0,0,149.79,3C147.23-1,142-.95,139,2.79A12.87,12.87,0,0,0,137.17,6a37.75,37.75,0,0,0-2.43,12.63A7,7,0,0,1,137.63,19.45Z"/><path class="cls-1" d="M134.67,21.89c0,3.1.07,6.19.22,9.27.37.89.78,1.79,1.21,2.67l-1.06.31a243.05,243.05,0,0,0,6.41,39.79c.85,3.6,2,7.13,3,10.7h.78c.7-2.4,1.49-4.78,2.09-7.2a249.11,249.11,0,0,0,6.33-38.63A18.83,18.83,0,0,0,149.11,35a45.77,45.77,0,0,0,3-4.56c.25-.46.46-.87.67-1.26a3.56,3.56,0,0,0,1.55-.6c0-1.61.08-3.22.06-4.84a3.61,3.61,0,0,0-2.09-.67,3.51,3.51,0,0,0-2.66,1.13,2.85,2.85,0,0,0-.09,3.77c-.19.33-.38.65-.59,1a42.79,42.79,0,0,0-2.2,4.81,18.2,18.2,0,0,0-3.25-.59A44.63,44.63,0,0,0,144.69,27c.06-.52.09-1,.13-1.4a3.13,3.13,0,0,0,1.55-1.71,3,3,0,0,0-2.18-3.88,4,4,0,0,0-1-.16A3.4,3.4,0,0,0,139.91,22a2.94,2.94,0,0,0,1.41,3.54c0,.37-.09.75-.13,1.17a44.45,44.45,0,0,0-.09,6.45,21.91,21.91,0,0,0-2.33.16,40,40,0,0,0-1.31-5.18c-.17-.49-.32-.92-.47-1.33a2.86,2.86,0,0,0,.71-2.12A3.23,3.23,0,0,0,134.67,21.89Z"/><path class="cls-1" d="M143.14,19.89a3.48,3.48,0,0,1,1.05.16,3,3,0,0,1,2.18,3.88,3.13,3.13,0,0,1-1.55,1.71c0,.44-.07.88-.13,1.4a44.63,44.63,0,0,1-1.21,6.23,18.2,18.2,0,0,1,3.25.59,42.79,42.79,0,0,1,2.2-4.81c.21-.39.4-.71.59-1a2.85,2.85,0,0,1,.09-3.77,3.52,3.52,0,0,1,2.63-1.13,3.62,3.62,0,0,1,2.15.69,2.88,2.88,0,0,1,.48,4.33,3.44,3.44,0,0,1-2.12,1.09c-.21.39-.42.8-.67,1.26a45.77,45.77,0,0,1-3,4.56c8.76,5.3,9.38,13.46,8.89,22.05-.33,5.85-2.65,16.48-1,24.45,3.59,21.65,14.53,34.15,14.34,56.08-.07,7.78-3,16.76-5.56,22.59-1.8,4.09-4,8.35-8.07,10.72-3.6,2.09-8.1,2.35-12.38,2.53h-.42a3.43,3.43,0,0,1-1.2-.18,3,3,0,0,1-.86.11,6.47,6.47,0,0,1-.76-.05c-4.26-.44-8.72-1-12.17-3.3-3.89-2.62-5.75-7-7.24-11.2-2.13-6-3.92-12.11-4.31-18.38-1.31-21.14,12.91-43.81,18.59-64.34.75-3.95.75-3.95.72-6,0-3-1.26-7.22-8.78-7.22-4.21,0-10.39,1.33-19.43,4.94a.89.89,0,0,1-.31.06.67.67,0,0,1-.66-1c1.73-2.93,4.65-7.41,6.4-10.54,4.51-8.1,7.66-14.51,14.66-19.92a24.94,24.94,0,0,1,6.51-2.69,40.55,40.55,0,0,1-2-4.74c-.15-.41-.25-.76-.37-1.12a3.23,3.23,0,0,1-2.8-2.79,3.2,3.2,0,0,1,3.13-3.31h.26a3.27,3.27,0,0,1,3.38,2.85,2.84,2.84,0,0,1-.71,2.12c.15.41.3.84.47,1.33a40,40,0,0,1,1.31,5.18,21.91,21.91,0,0,1,2.33-.16,44.45,44.45,0,0,1,.09-6.45c0-.42.09-.8.13-1.17A2.94,2.94,0,0,1,139.91,22a3.39,3.39,0,0,1,3.23-2.13"/><path class="cls-1" d="M143.14,19.89a3.48,3.48,0,0,1,1.05.16,3,3,0,0,1,2.18,3.88,3.13,3.13,0,0,1-1.55,1.71c0,.44-.07.88-.13,1.4a44.63,44.63,0,0,1-1.21,6.23,18.2,18.2,0,0,1,3.25.59,42.79,42.79,0,0,1,2.2-4.81c.21-.39.4-.71.59-1a2.85,2.85,0,0,1,.09-3.77,3.52,3.52,0,0,1,2.63-1.13,3.62,3.62,0,0,1,2.15.69,2.88,2.88,0,0,1,.48,4.33,3.44,3.44,0,0,1-2.12,1.09c-.21.39-.42.8-.67,1.26a45.77,45.77,0,0,1-3,4.56c8.76,5.3,9.38,13.46,8.89,22.05-.33,5.85-2.65,16.48-1,24.45,3.59,21.65,14.53,34.15,14.34,56.08-.07,7.78-3,16.76-5.56,22.59-1.8,4.09-4,8.35-8.07,10.72-3.6,2.09-8.1,2.35-12.38,2.53h-.42a3.43,3.43,0,0,1-1.2-.18,3,3,0,0,1-.86.11,6.47,6.47,0,0,1-.76-.05c-4.26-.44-8.72-1-12.17-3.3-3.89-2.62-5.75-7-7.24-11.2-2.13-6-3.92-12.11-4.31-18.38-1.31-21.14,12.91-43.81,18.59-64.34.75-3.95.75-3.95.72-6,0-3-1.26-7.22-8.78-7.22-4.21,0-10.39,1.33-19.43,4.94a.89.89,0,0,1-.31.06.67.67,0,0,1-.66-1c1.73-2.93,4.65-7.41,6.4-10.54,4.51-8.1,7.66-14.51,14.66-19.92a24.94,24.94,0,0,1,6.51-2.69,40.55,40.55,0,0,1-2-4.74c-.15-.41-.25-.76-.37-1.12a3.23,3.23,0,0,1-2.8-2.79,3.2,3.2,0,0,1,3.13-3.31h.26a3.27,3.27,0,0,1,3.38,2.85,2.84,2.84,0,0,1-.71,2.12c.15.41.3.84.47,1.33a40,40,0,0,1,1.31,5.18,21.91,21.91,0,0,1,2.33-.16,44.45,44.45,0,0,1,.09-6.45c0-.42.09-.8.13-1.17A2.94,2.94,0,0,1,139.91,22a3.39,3.39,0,0,1,3.23-2.13"/><path class="cls-1" d="M143.14,19.89a3.48,3.48,0,0,1,1.05.16,3,3,0,0,1,2.18,3.88,3.13,3.13,0,0,1-1.55,1.71c0,.44-.07.88-.13,1.4a44.63,44.63,0,0,1-1.21,6.23,18.2,18.2,0,0,1,3.25.59,42.79,42.79,0,0,1,2.2-4.81c.21-.39.4-.71.59-1a2.85,2.85,0,0,1,.09-3.77,3.52,3.52,0,0,1,2.63-1.13,3.62,3.62,0,0,1,2.15.69,2.88,2.88,0,0,1,.48,4.33,3.44,3.44,0,0,1-2.12,1.09c-.21.39-.42.8-.67,1.26a45.77,45.77,0,0,1-3,4.56c8.76,5.3,9.38,13.46,8.89,22.05-.33,5.85-2.65,16.48-1,24.45,3.59,21.65,14.53,34.15,14.34,56.08-.07,7.78-3,16.76-5.56,22.59-1.8,4.09-4,8.35-8.07,10.72-3.6,2.09-8.1,2.35-12.38,2.53h-.42a3.43,3.43,0,0,1-1.2-.18,3,3,0,0,1-.86.11,6.47,6.47,0,0,1-.76-.05c-4.26-.44-8.72-1-12.17-3.3-3.89-2.62-5.75-7-7.24-11.2-2.13-6-3.92-12.11-4.31-18.38-1.31-21.14,12.91-43.81,18.59-64.34.75-3.95.75-3.95.72-6,0-3-1.26-7.22-8.78-7.22-4.21,0-10.39,1.33-19.43,4.94a.89.89,0,0,1-.31.06.67.67,0,0,1-.66-1c1.73-2.93,4.65-7.41,6.4-10.54,4.51-8.1,7.66-14.51,14.66-19.92a24.94,24.94,0,0,1,6.51-2.69,40.55,40.55,0,0,1-2-4.74c-.15-.41-.25-.76-.37-1.12a3.23,3.23,0,0,1-2.8-2.79,3.2,3.2,0,0,1,3.13-3.31h.26a3.27,3.27,0,0,1,3.38,2.85,2.84,2.84,0,0,1-.71,2.12c.15.41.3.84.47,1.33a40,40,0,0,1,1.31,5.18,21.91,21.91,0,0,1,2.33-.16,44.45,44.45,0,0,1,.09-6.45c0-.42.09-.8.13-1.17A2.94,2.94,0,0,1,139.91,22a3.39,3.39,0,0,1,3.23-2.13"/><path class="cls-1" d="M143.14,19.89a3.48,3.48,0,0,1,1.05.16,3,3,0,0,1,2.18,3.88,3.13,3.13,0,0,1-1.55,1.71c0,.44-.07.88-.13,1.4a44.63,44.63,0,0,1-1.21,6.23,18.2,18.2,0,0,1,3.25.59,42.79,42.79,0,0,1,2.2-4.81c.21-.39.4-.71.59-1a2.85,2.85,0,0,1,.09-3.77,3.52,3.52,0,0,1,2.63-1.13,3.62,3.62,0,0,1,2.15.69,2.88,2.88,0,0,1,.48,4.33,3.44,3.44,0,0,1-2.12,1.09c-.21.39-.42.8-.67,1.26a45.77,45.77,0,0,1-3,4.56c8.76,5.3,9.38,13.46,8.89,22.05-.33,5.85-2.65,16.48-1,24.45,3.59,21.65,14.53,34.15,14.34,56.08-.07,7.78-3,16.76-5.56,22.59-1.8,4.09-4,8.35-8.07,10.72-3.6,2.09-8.1,2.35-12.38,2.53h-.42a3.43,3.43,0,0,1-1.2-.18,3,3,0,0,1-.86.11,6.47,6.47,0,0,1-.76-.05c-4.26-.44-8.72-1-12.17-3.3-3.89-2.62-5.75-7-7.24-11.2-2.13-6-3.92-12.11-4.31-18.38-1.31-21.14,12.91-43.81,18.59-64.34.75-3.95.75-3.95.72-6,0-3-1.26-7.22-8.78-7.22-4.21,0-10.39,1.33-19.43,4.94a.89.89,0,0,1-.31.06.67.67,0,0,1-.66-1c1.73-2.93,4.65-7.41,6.4-10.54,4.51-8.1,7.66-14.51,14.66-19.92a24.94,24.94,0,0,1,6.51-2.69,40.55,40.55,0,0,1-2-4.74c-.15-.41-.25-.76-.37-1.12a3.23,3.23,0,0,1-2.8-2.79,3.2,3.2,0,0,1,3.13-3.31h.26a3.27,3.27,0,0,1,3.38,2.85,2.84,2.84,0,0,1-.71,2.12c.15.41.3.84.47,1.33a40,40,0,0,1,1.31,5.18,21.91,21.91,0,0,1,2.33-.16,44.45,44.45,0,0,1,.09-6.45c0-.42.09-.8.13-1.17A2.94,2.94,0,0,1,139.91,22a3.39,3.39,0,0,1,3.23-2.13"/><path class="cls-1" d="M143.14,19.89a3.48,3.48,0,0,1,1.05.16,3,3,0,0,1,2.18,3.88,3.13,3.13,0,0,1-1.55,1.71c0,.44-.07.88-.13,1.4a44.63,44.63,0,0,1-1.21,6.23,18.2,18.2,0,0,1,3.25.59,42.79,42.79,0,0,1,2.2-4.81c.21-.39.4-.71.59-1a2.85,2.85,0,0,1,.09-3.77,3.52,3.52,0,0,1,2.63-1.13,3.62,3.62,0,0,1,2.15.69,2.88,2.88,0,0,1,.48,4.33,3.44,3.44,0,0,1-2.12,1.09c-.21.39-.42.8-.67,1.26a45.77,45.77,0,0,1-3,4.56c8.76,5.3,9.38,13.46,8.89,22.05-.33,5.85-2.65,16.48-1,24.45,3.59,21.65,14.53,34.15,14.34,56.08-.07,7.78-3,16.76-5.56,22.59-1.8,4.09-4,8.35-8.07,10.72-3.6,2.09-8.1,2.35-12.38,2.53h-.42a3.43,3.43,0,0,1-1.2-.18,3,3,0,0,1-.86.11,6.47,6.47,0,0,1-.76-.05c-4.26-.44-8.72-1-12.17-3.3-3.89-2.62-5.75-7-7.24-11.2-2.13-6-3.92-12.11-4.31-18.38-1.31-21.14,12.91-43.81,18.59-64.34.75-3.95.75-3.95.72-6,0-3-1.26-7.22-8.78-7.22-4.21,0-10.39,1.33-19.43,4.94a.89.89,0,0,1-.31.06.67.67,0,0,1-.66-1c1.73-2.93,4.65-7.41,6.4-10.54,4.51-8.1,7.66-14.51,14.66-19.92a24.94,24.94,0,0,1,6.51-2.69,40.55,40.55,0,0,1-2-4.74c-.15-.41-.25-.76-.37-1.12a3.23,3.23,0,0,1-2.8-2.79,3.2,3.2,0,0,1,3.13-3.31h.26a3.27,3.27,0,0,1,3.38,2.85,2.84,2.84,0,0,1-.71,2.12c.15.41.3.84.47,1.33a40,40,0,0,1,1.31,5.18,21.91,21.91,0,0,1,2.33-.16,44.45,44.45,0,0,1,.09-6.45c0-.42.09-.8.13-1.17A2.94,2.94,0,0,1,139.91,22a3.39,3.39,0,0,1,3.23-2.13"/><path class="cls-1" d="M261.59,62.18a25.6,25.6,0,0,0-8.41,1.09c-8.22,2.6-15.37,7-22.43,11.53a344,344,0,0,0-35.87,26.53c-7.46,6.25-14.58,12.82-21.83,19.27a1.85,1.85,0,0,0-.14.14c.15.59.28,1.19.41,1.79l.1,0a358.08,358.08,0,0,0,36.7-15.87c14.26-6.93,28.33-14.17,41.08-23.27a107.6,107.6,0,0,0,11.85-10.27A12.51,12.51,0,0,0,265.9,68,4.44,4.44,0,0,0,261.59,62.18Z"/><path class="cls-1" d="M283.25,91.91c-1-2.38-3.22-3.1-5.74-3.34-5.59-.52-10.9.78-16.13,2.26-13.82,3.9-26.89,9.42-39.72,15.39-16.06,7.46-31.85,15.35-46.78,24.57l-.25.17c.07.69.15,1.36.19,2.07,9-1.83,17.92-3.58,26.82-5.61a416.94,416.94,0,0,0,48.87-14c8-2.91,15.79-6.51,23.46-10.14a33.57,33.57,0,0,0,7.56-5.59C283.24,96.21,284.22,94.2,283.25,91.91Z"/><path class="cls-1" d="M286.12,119.9a34.49,34.49,0,0,0-10-1.46c-11.38,0-22.44,2.22-33.41,4.7a489.07,489.07,0,0,0-67.51,20.08l-.72.31c-.09.6-.19,1.21-.3,1.81.69,0,1.39,0,2.08,0,13.9-.61,27.81-1,41.68-2a345.55,345.55,0,0,0,43.64-5.73c7.05-1.42,14.07-3,20.56-6A23.32,23.32,0,0,0,288,128C291.08,125.14,290.25,121.18,286.12,119.9Z"/><path class="cls-1" d="M237.92,37.83a28.36,28.36,0,0,0-7.77,3.65c-8.11,5.26-14.7,12-21.08,18.85a381.43,381.43,0,0,0-38,48.39c-.43.66-.83,1.34-1.21,2,.22.62.43,1.25.65,1.88.58-.31,1.16-.63,1.7-1,21.71-14.26,42.06-29.93,59.94-48.1a121.72,121.72,0,0,0,10.56-13,18.45,18.45,0,0,0,2.69-6C246.74,39.74,243.09,36.41,237.92,37.83Z"/><path class="cls-1" d="M219.07,24.09c-.47-3.82-4.24-5.9-8.07-4.26a23,23,0,0,0-6.56,4.35c-6,5.56-10.25,12.25-14.24,19a294.12,294.12,0,0,0-25.13,54.44c.33,1,.67,1.9,1,2.83,2.34-2.25,4.71-4.48,6.94-6.82,13.72-14.45,26.43-29.58,37-46.09,3.67-5.71,7.09-11.57,8.68-18.1A15.35,15.35,0,0,0,219.07,24.09Z"/><path class="cls-1" d="M190.27,15.82a12.06,12.06,0,0,0-.81-3.54A6.41,6.41,0,0,0,179,9.83a26.84,26.84,0,0,0-5.56,7c-4,7.18-6.13,15-8,22.82a247.65,247.65,0,0,0-5.34,32.14,35.09,35.09,0,0,0,.43,9v.07l0,.08c.33,2,.74,3.93,1.19,5.8,1.43-2.19,2.87-4.39,4.18-6.64,9.11-15.69,17.11-31.81,22.21-49C189.63,26.11,190.72,21.05,190.27,15.82Z"/><path class="cls-1" d="M124.06,100.78c.33-.8.65-1.61,1-2.42A278.2,278.2,0,0,0,113.74,70.1c-.94.35-1.91.72-2.92,1.12a4.39,4.39,0,0,1-5.41-1.87,4.13,4.13,0,0,1,0-4.2c.72-1.22,1.64-2.7,2.6-4.25.23-.36.45-.72.67-1.08q-4.27-8.4-9.06-16.59c-4-6.8-8.27-13.49-14.24-19a23.15,23.15,0,0,0-6.56-4.35c-3.83-1.64-7.61.44-8.08,4.26a15.36,15.36,0,0,0,.35,5.4c1.59,6.53,5,12.39,8.67,18.1,10.6,16.51,23.31,31.64,37,46.09C119.15,96.12,121.62,98.44,124.06,100.78Z"/><path class="cls-1" d="M119.58,112.76c.19-.57.39-1.14.59-1.7-.45-.79-.9-1.58-1.41-2.34a381.35,381.35,0,0,0-38-48.39c-6.38-6.87-13-13.59-21.08-18.85a28.63,28.63,0,0,0-7.77-3.65c-5.18-1.42-8.83,1.91-7.5,6.67a18.24,18.24,0,0,0,2.69,6,120.51,120.51,0,0,0,10.56,13c17.87,18.17,38.23,33.84,59.93,48.1C118.25,112,118.91,112.4,119.58,112.76Z"/><path class="cls-1" d="M116.7,122.58c.14-.55.27-1.11.42-1.67-.11-.1-.2-.22-.31-.31-7.25-6.45-14.38-13-21.83-19.27A343.08,343.08,0,0,0,59.1,74.8c-7.05-4.51-14.21-8.93-22.43-11.53a25.54,25.54,0,0,0-8.4-1.09A4.45,4.45,0,0,0,24,68a12.65,12.65,0,0,0,2.86,5.12A107.6,107.6,0,0,0,38.66,83.36c12.75,9.1,26.82,16.34,41.08,23.27a358.08,358.08,0,0,0,36.7,15.87Z"/><path class="cls-1" d="M115.17,130.92l-.2-.13C100,121.57,84.25,113.68,68.2,106.22c-12.84-6-25.91-11.49-39.72-15.39-5.24-1.48-10.55-2.78-16.14-2.26-2.51.24-4.74,1-5.74,3.34s0,4.3,1.72,5.81a33.79,33.79,0,0,0,7.56,5.59c7.68,3.63,15.43,7.23,23.46,10.14a417.1,417.1,0,0,0,48.88,14c8.86,2,17.81,3.77,26.73,5.6C115,132.32,115.09,131.62,115.17,130.92Z"/><path class="cls-1" d="M115.07,143.39l-.4-.17a489.21,489.21,0,0,0-67.52-20.08c-11-2.48-22-4.7-33.4-4.7a34.39,34.39,0,0,0-10,1.46c-4.14,1.28-5,5.24-1.86,8a23.14,23.14,0,0,0,5.85,3.73c6.48,3,13.5,4.54,20.56,6a345.07,345.07,0,0,0,43.64,5.73c13.86,1,27.78,1.35,41.68,2,.58,0,1.16,0,1.74,0C115.25,144.69,115.15,144.05,115.07,143.39Z"/></g></g></svg>