<svg xmlns="http://www.w3.org/2000/svg" width="108.922" height="152.729" viewBox="0 0 108.922 152.729">
  <g id="Gruppe_10" data-name="Gruppe 10" transform="translate(-602 -1928.271)">
    <path id="Pfad_94" data-name="Pfad 94" d="M617.121,2039.641s-.421,11.118,7.442,16.876,9.454,12.619,19.188,18.081,12.1,7.376,17.555,5.166,8.8,1.973,12.955-5.166,15.543-17.208,17.282-22.455,5.906-7.267,6.814-12.5a26.231,26.231,0,0,0,0-9.286s4.565,1.021,7.239-6.779,0-13.005,0-13.005l4.008-13.294-4.008-11.231-26.408-15.473-17.882-4.994s-21.722,3.427-27.636,13.929-16.549,24.56-16.549,24.56l-6.713-6.791s-8.46-9.614-7,0,4.468,15.738,7,22.03S617.121,2039.641,617.121,2039.641Z" fill="#fff"/>
    <g id="Gruppe_8" data-name="Gruppe 8" transform="translate(-410.92 1693.198)">
      <path id="Pfad_86" data-name="Pfad 86" d="M1102.952,311.464c-.413-5.742-.854-11.5-1.771-17.179a13.538,13.538,0,0,0-.476-1.943,27.737,27.737,0,0,0-2.664-5.543c-5.229-8.788-11.591-16.545-21.425-20.453a37.117,37.117,0,0,0-8.066-2.252,26.326,26.326,0,0,0-12.364.936q-1.176.387-2.33.889c-5.389,2.345-10.433,6.591-15.258,12.722q-2.117,2.692-4.319,5.321c-.081.1-.165.2-.248.294q-2.119,2.536-4.3,5.018h0l.026.036a22.291,22.291,0,0,0-3.14,7.486c-.919,5.674-1.36,11.436-1.772,17.179-.684,9.525-1.4,19.2,2.936,28.082a67.79,67.79,0,0,0,7.437,11.848l.071.064c4.032,3.562,7.95,7.262,12,10.805.2.18.4.363.607.542,1.469,1.276,2.957,2.528,4.477,3.74a19.782,19.782,0,0,0,3.723,2.375,14.9,14.9,0,0,0,6.38,1.541q.646.006,1.294-.046a15.663,15.663,0,0,0,2.6-.433,20.984,20.984,0,0,0,6.538-3.044c10.056-6.784,18.589-15,24.662-25.342q1.3-2.215,2.45-4.562c3.254-6.663,3.663-13.77,3.376-20.926C1103.3,316.236,1103.122,313.844,1102.952,311.464Zm-73.373-15.054c.7-.683,1.277-1.71,2.108-1.983,2.277-.748,4.661-1.18,7.1-1.762,2.962.691,5.881,1.253,8.727,2.067,3.385.968,6.74,2.065,10.037,3.3.941.352,1.635,1.37,2.442,2.082-.948.172-1.99.688-2.826.459-3.717-1.022-7.393-2.2-11.049-3.431-4.524-1.517-9.016-1.975-13.64-.356C1031.656,297.072,1030.553,296.554,1029.579,296.41Zm10.081,12.4c-4.235,1.418-5.949.291-7.721-4.94,3.959.249,7.494.074,10.841.785a98.085,98.085,0,0,1,12.206,3.867c.567.2.817,1.3,1.213,1.978a9.334,9.334,0,0,1-2.352.4,4.659,4.659,0,0,1-1.782-.848A14.122,14.122,0,0,0,1039.661,308.806Zm35.8,35.559a2.852,2.852,0,0,1-.715.091c-.666,1.635-.833,3.06-1.631,3.807-6.151,5.757-14.028,5.848-20.253.241-.959-.864-1.381-2.325-2.38-4.088a5.6,5.6,0,0,1-1.749-.047c-.527-.137-1.274-.668-1.32-1.09-.047-.44.526-1.136,1-1.412,2.094-1.209,4.34-2.169,6.368-3.473,2.885-1.856,5.63-2.575,8.489.291,3.134-3.161,5.962-1.941,8.79.4,1.182.979,2.608,1.659,3.847,2.578a15.661,15.661,0,0,1,1.823,1.864C1076.979,343.814,1076.238,344.157,1075.461,344.366Zm11.732-35.353a18.062,18.062,0,0,0-15.212,1.625c-.61.341-1.678-.141-2.534-.241.5-.741.828-1.739,1.516-2.181,4.741-3.036,16.134-5.026,22.239-3.931C1092.3,308.584,1090.73,310.157,1087.193,309.013Zm8.639-11.945a6.081,6.081,0,0,1-2.181-.034c-6.139-2.583-11.9-.777-17.684,1.317-2.791,1.011-5.663,1.819-8.54,2.553-.539.137-1.279-.52-1.925-.811.42-.554.737-1.441,1.279-1.612,5.771-1.831,11.493-4,17.41-5.118,3.17-.6,6.709.553,10.041,1.143.755.133,1.344,1.209,2.01,1.851C1096.1,296.593,1095.968,296.831,1095.831,297.067Z" transform="translate(4.851 12.199)" fill="none"/>
      <path id="Pfad_87" data-name="Pfad 87" d="M1069.024,319.88c-1.239-.919-2.665-1.6-3.847-2.578-2.828-2.343-5.656-3.563-8.79-.4-2.859-2.866-5.6-2.146-8.489-.291-2.028,1.3-4.275,2.265-6.368,3.473-.479.276-1.052.972-1,1.412.046.422.792.954,1.32,1.09a5.6,5.6,0,0,0,1.749.047c1,1.763,1.421,3.224,2.38,4.088,6.226,5.607,14.1,5.516,20.253-.241.8-.747.965-2.172,1.631-3.807a2.852,2.852,0,0,0,.715-.091c.777-.208,1.518-.552,2.273-.837A15.66,15.66,0,0,0,1069.024,319.88Zm-14.165-.909a3.746,3.746,0,0,0,3.371-.113c2.647-1.712,4.263-.5,6.489,2.1H1046.8C1049.773,318.364,1051.834,316.876,1054.859,318.971Zm-7.672,4.923h17.7C1060.317,329.742,1050.847,329.618,1047.187,323.894Z" transform="translate(11.739 33.984)" fill="#a8c837"/>
      <path id="Pfad_88" data-name="Pfad 88" d="M1051.576,298.927a9.334,9.334,0,0,0,2.352-.4c-.4-.681-.646-1.777-1.213-1.978a98.076,98.076,0,0,0-12.206-3.867c-3.347-.711-6.881-.536-10.841-.785,1.772,5.231,3.486,6.358,7.721,4.94a14.122,14.122,0,0,1,12.406,1.241A4.659,4.659,0,0,0,1051.576,298.927Z" transform="translate(7.123 24.167)" fill="#a8c837"/>
      <path id="Pfad_89" data-name="Pfad 89" d="M1057.5,296.214c-.689.442-1.021,1.439-1.516,2.181.856.1,1.924.582,2.534.241a18.063,18.063,0,0,1,15.212-1.625c3.537,1.144,5.1-.429,6.009-4.728C1073.634,291.188,1062.24,293.178,1057.5,296.214Z" transform="translate(18.314 24.201)" fill="#a8c837"/>
      <path id="Pfad_90" data-name="Pfad 90" d="M1081.945,285.721c-3.332-.59-6.871-1.743-10.041-1.143-5.916,1.12-11.639,3.287-17.41,5.118-.542.171-.858,1.058-1.279,1.612.647.291,1.387.948,1.926.811,2.878-.734,5.749-1.542,8.54-2.553,5.788-2.094,11.545-3.9,17.684-1.317a6.08,6.08,0,0,0,2.181.034c.137-.237.272-.475.409-.711C1083.289,286.93,1082.7,285.854,1081.945,285.721Z" transform="translate(17.137 20.982)" fill="#a8c837"/>
      <path id="Pfad_91" data-name="Pfad 91" d="M1044.551,288.514c3.656,1.226,7.332,2.409,11.049,3.431.837.229,1.879-.286,2.826-.459-.807-.713-1.5-1.73-2.442-2.082-3.3-1.231-6.652-2.329-10.037-3.3-2.846-.814-5.765-1.375-8.727-2.067-2.44.582-4.823,1.013-7.1,1.762-.831.272-1.412,1.3-2.108,1.983.973.144,2.077.661,2.9.373C1035.535,286.539,1040.027,287,1044.551,288.514Z" transform="translate(6.418 20.825)" fill="#a8c837"/>
      <path id="Pfad_92" data-name="Pfad 92" d="M1070.431,235.073c1.224,7.23,2.011,14.441-.805,21.538C1073.995,253.6,1074.512,239.367,1070.431,235.073Z" transform="translate(24.116 0)" fill="#a8c837"/>
      <path id="Pfad_93" data-name="Pfad 93" d="M1117.274,300.015a55.986,55.986,0,0,0,2.769-9.239,53.334,53.334,0,0,0,.857-15.707q-.207-2.292-.583-4.508a51.353,51.353,0,0,0-5.715-16.493,52.623,52.623,0,0,0-7.936-10.74,41.072,41.072,0,0,1-3.13-4.518,3.629,3.629,0,0,0-.61-.631c-.227-.194-.466-.379-.684-.579-.165.214-.359.419-.546.627a2.848,2.848,0,0,0-.7,1.068,3.024,3.024,0,0,0,.192,1.442,3.55,3.55,0,0,1,.1.5,29.7,29.7,0,0,1-1.043,12.431,22.532,22.532,0,0,1-1.283,3.126,24.343,24.343,0,0,1-8.371,9.25,27.583,27.583,0,0,1-7.477,3.539,36.216,36.216,0,0,1-8.146,1.432,73.166,73.166,0,0,0-11.887,1.489c-.959.228-1.906.492-2.835.8a25.772,25.772,0,0,0-4.057,1.737q-.654.351-1.288.747a22.185,22.185,0,0,0-2.466,1.787,83.034,83.034,0,0,0-7.47,7.223c-2.371,2.55-4.662,5.191-6.987,7.771q-1.642,1.824-3.244,3.691c-.172.2-.344.406-.516.607-2.97,3.471-5.9,7.044-8.991,10.7l-.094.113c-.068.024-.14.054-.207.074-.128-.177-.227-.308-.338-.462-.513-.7-.881-1.19-1.163-1.585l-.05-.067c-.118-.168-.227-.326-.331-.486-5.2-8.024-7.376-18.346-6.685-28.557a54.3,54.3,0,0,1,1.978-11.314,50.121,50.121,0,0,1,2.637-7.112,43.248,43.248,0,0,1,5.892-9.461,23.434,23.434,0,0,0,2.279-2.849,1.782,1.782,0,0,0,.167-.956c-.006-.18-.02-.363-.031-.546s-.02-.363-.013-.536c-.342.078-.7.127-1.043.2a3.993,3.993,0,0,0-.989.3,4.254,4.254,0,0,0-1.137,1.19,58.244,58.244,0,0,0-5.778,8.213,50.422,50.422,0,0,0-6.566,30.2,66.491,66.491,0,0,0,1.612,9.854c.132.553.308,1.1.465,1.65.47,1.648,1,3.3,1.518,5.028a7.1,7.1,0,0,0-3.17,2.221,5.8,5.8,0,0,0-1,2.023,7.955,7.955,0,0,0-.257,2.352,11.68,11.68,0,0,0,.108,1.273c.023.162.057.324.081.486a34.752,34.752,0,0,0,.878,5.008c1.19,5.249,4.548,12.5,5.38,17.822.567,3.633,2.555,6.231,5.3,8.495,1.026.845,2.292,2.115,2.382,3.275.683,8.813,5.036,15.8,10.192,22.3a1.484,1.484,0,0,0,.25.492q1.155,1.36,2.347,2.677h0c.274.319.549.636.823.954,0-.017.01-.034.013-.053a86.71,86.71,0,0,0,7.144,6.935c.3.261.6.524.911.78.4.333.809.66,1.219.985s.83.654,1.251.975q.541.413,1.093.814c.519.379,1.049.745,1.581,1.109.3.2.6.413.9.614.854.56,1.719,1.1,2.608,1.625q.611.359,1.223.677a21.311,21.311,0,0,0,6.113,2.155q.611.109,1.226.174A18.117,18.117,0,0,0,1077.165,384a75.954,75.954,0,0,0,18.5-15.32q1.148-1.283,2.255-2.611a70.739,70.739,0,0,0,8.8-12.56c.18-.345.352-.694.522-1.045q.528-1.1.986-2.239.181-.453.352-.914c.355-.964.676-1.944.941-2.953a30.572,30.572,0,0,0,.922-5.447,4.658,4.658,0,0,1,1.589-2.571c.265-.255.536-.493.793-.7a16.966,16.966,0,0,0,3.47-3.733,12.215,12.215,0,0,0,.631-1.073,11.725,11.725,0,0,0,.925-2.373,12.483,12.483,0,0,0,.278-1.316q.312-2,.621-4c.626-4,1.284-7.99,2.178-11.927C1122.1,308.028,1123.165,303.1,1117.274,300.015Zm-96.039,28.412c-.76-3.639-1.857-7.212-2.912-10.782-.778-2.64-1.94-5.184-2.526-7.859-.467-2.125-.324-4.386,2.279-5.316,1.924,2.236,3.364,4.954,5.614,6.2a3.425,3.425,0,0,1,2.127,3.606c.107,7.059.249,14.119.385,21.478C1023.179,334.186,1021.9,331.622,1021.235,328.426Zm86.382-74.915c.639,5.888-8.4,16.894-13.7,16.637C1100.46,266.213,1104.205,260,1107.617,253.512Zm-2.752,97.159q-1.148,2.35-2.45,4.562c-6.073,10.339-14.607,18.557-24.662,25.342a20.985,20.985,0,0,1-6.538,3.045,15.663,15.663,0,0,1-2.6.433q-.648.051-1.294.046a14.9,14.9,0,0,1-6.38-1.541,19.788,19.788,0,0,1-3.723-2.374c-1.519-1.212-3.007-2.464-4.477-3.74-.2-.178-.4-.362-.607-.542-4.045-3.543-7.963-7.243-12-10.805l-.071-.064a67.774,67.774,0,0,1-7.437-11.848c-4.339-8.884-3.62-18.557-2.936-28.082.412-5.742.852-11.5,1.772-17.179a22.291,22.291,0,0,1,3.14-7.486l-.026-.036h0q2.181-2.484,4.3-5.018c.083-.1.167-.2.248-.294q2.2-2.634,4.319-5.321c4.825-6.132,9.869-10.378,15.258-12.722q1.155-.5,2.33-.889a26.325,26.325,0,0,1,12.364-.936,37.119,37.119,0,0,1,8.066,2.252c9.834,3.908,16.2,11.664,21.425,20.453a27.73,27.73,0,0,1,2.664,5.543,13.5,13.5,0,0,1,.476,1.943c.918,5.674,1.358,11.437,1.772,17.179.17,2.38.344,4.772.439,7.156C1108.528,336.9,1108.119,344.008,1104.865,350.671Zm14.145-42.481c-.305,2.722-1.2,5.373-1.7,8.08-.677,3.66-1.4,7.327-1.776,11.025-.332,3.248-1.336,5.932-4.179,7.8-.63-7.333-1.221-14.37-1.849-21.4a3.427,3.427,0,0,1,1.74-3.807c2.109-1.472,3.258-4.326,4.94-6.749C1118.876,303.795,1119.254,306.028,1119.01,308.19Z" transform="translate(0 1.075)" fill="#a8c837"/>
    </g>
  </g>
</svg>
