<svg xmlns="http://www.w3.org/2000/svg" viewBox="0 0 163.27 262.31"><defs><style>.cls-1{fill:#fdf7f7;}.cls-2{fill:none;}.cls-3{fill:#e0bbb0;}.cls-4{fill:#fff;}.cls-5{fill:#e0bcb1;}</style></defs><g id="Ebene_2" data-name="Ebene 2"><g id="Ebene_1-2" data-name="Ebene 1"><path class="cls-1" d="M130.2,208.13l-27.45,13.19L58.81,242.89l1.67,17.38-22.81,1.29-12.32-3.11-2.71-11.56,6.64-13.06s-12.46-12-13.53-17.43c-2.52-12.73,13.53-26.75,9.74-51C24.16,156.89,15,132.61,15,132.61L9.8,93.79l-4.07-42L.46,14.41,5.44,7l7.27-5.53L33.4,7.31,62.45,21l2.61,4.9-1.17,6.4L78.24,45.05l24.51,3,27.16,18.32,20.57.9,8.22,7.83Z"/><path class="cls-2" d="M53,109.8a6.66,6.66,0,0,0-2.53-3.12A6.66,6.66,0,0,1,53,109.8Z"/><path class="cls-2" d="M92.7,158.66h0c7.11-6.13,9.3-13.49,10-21.51h0C102,145.17,99.81,152.53,92.7,158.66Z"/><path class="cls-2" d="M130.87,145.1c3.68-3.92,7.14-8,11.06-12.49h0c-3.92,4.46-7.38,8.58-11.06,12.5s-7.75,7.67-11.45,11.67c-1.66,1.8-2.84,4-4.64,6.68h0c1.8-2.64,3-4.88,4.64-6.68C123.12,152.77,127.15,149.08,130.87,145.1Z"/><path class="cls-3" d="M42.08,205.87,37.86,221h0c1.32-4.73,2.68-9.59,4.22-15.12Z"/><path class="cls-3" d="M84.64,60h0l-1.15.94,2.18,3-2.18-3Z"/><path class="cls-3" d="M51,220.15h0c-2.05-1.46-2.08-3.22,0-6.73h0C48.87,216.93,48.9,218.69,51,220.15Z"/><path class="cls-3" d="M88,63.17c-.16-.1-.31-.23-.46-.34.16.12.3.24.46.34a19,19,0,0,0,5.61,2.3,3.07,3.07,0,0,1,1.92.87,3.07,3.07,0,0,0-1.92-.87A18.87,18.87,0,0,1,88,63.17Z"/><path class="cls-3" d="M86.9,110.54h0c.43-5-1.44-7.76-6.12-9.13h0C85.46,102.78,87.33,105.5,86.9,110.54Z"/><path class="cls-3" d="M91.58,72.18h0l-1.17-1.64Z"/><path class="cls-3" d="M16.43,211.43A3.14,3.14,0,0,0,15,213.55,3.14,3.14,0,0,1,16.43,211.43Z"/><path class="cls-3" d="M91.24,101.22h0l4.84-7.43h0Z"/><path class="cls-3" d="M23.31,247.24a30.73,30.73,0,0,0,2.92,1A30.73,30.73,0,0,1,23.31,247.24Z"/><path class="cls-3" d="M30,219.59a7.43,7.43,0,0,0,.63-1.93,7.26,7.26,0,0,1-.63,1.92c-3.67-1.47-3.15-4.32-3.1-7.25h0C26.85,215.26,26.33,218.11,30,219.59Z"/><path class="cls-3" d="M24.93,223.82l2.54,4.79h0l-2.54-4.79Z"/><path class="cls-3" d="M29.66,234.39q.48-6.49,1-13l-.59-.09h0l.58.09Q30.15,227.91,29.66,234.39Z"/><path class="cls-3" d="M57.78,213.15h0a6.42,6.42,0,0,1-.31-2.55,8.54,8.54,0,0,1,1.7-2.59,2,2,0,0,1,.55.12,2,2,0,0,0-.55-.12,8.54,8.54,0,0,0-1.7,2.59,6.59,6.59,0,0,0,.31,2.55Z"/><path class="cls-3" d="M33.52,15,32.11,20.9h0L33.52,15c-4.64-2-15,1.17-17.35,5.85h0C18.57,16.2,28.88,13,33.52,15Z"/><polygon class="cls-3" points="59.11 45.05 60.16 44.93 62.2 40.75 62.2 40.75 60.16 44.93 59.11 45.05"/><path class="cls-3" d="M24.87,228.57c.93,2.15,3.11,3.52,4.41,5.26C28,232.09,25.8,230.72,24.87,228.57Z"/><path class="cls-3" d="M26.5,66.86a.84.84,0,0,0,0,.18,1,1,0,0,1,0-.18c.9-2.73,2.32-5.08,4.95-6.37l.42.29-.42-.29C28.82,61.78,27.4,64.13,26.5,66.86Z"/><path class="cls-3" d="M15.75,216.41,18.87,210h0l-3.12,6.43Z"/><path class="cls-3" d="M39.91,260.65a8.65,8.65,0,0,0-2.24.91,134.46,134.46,0,0,0,14.47.75,134.46,134.46,0,0,1-14.47-.75A8.65,8.65,0,0,1,39.91,260.65Z"/><path class="cls-3" d="M31.91,258.19a6.87,6.87,0,0,0-6.56.26l9.54,3.74h0l-9.54-3.74A6.87,6.87,0,0,1,31.91,258.19Z"/><path class="cls-3" d="M52.47,257.71a5.13,5.13,0,0,0-.67.09c-3.14.66-5.8,3.23-9.17,3.29,3.37-.06,6-2.63,9.17-3.29A5.13,5.13,0,0,1,52.47,257.71Z"/><path class="cls-4" d="M127.05,152.5s14.24-17.08,14.88-19.89c-3.92,4.45-7.38,8.57-11.06,12.49s-7.75,7.67-11.45,11.67c-1.66,1.8-2.84,4-4.64,6.68C116.62,163.25,127.05,152.5,127.05,152.5Z"/><path class="cls-4" d="M102.75,137.15c-3.21,6.87-6.43,13.75-10,21.51C99.81,152.53,102,145.17,102.75,137.15Z"/><path class="cls-4" d="M53.35,112.72A7.22,7.22,0,0,0,53,109.8a6.66,6.66,0,0,0-2.53-3.12c-.8-.58-1.66-1.08-2.47-1.59C49.63,107.42,51.27,109.77,53.35,112.72Z"/><path class="cls-3" d="M42.63,261.09a6.91,6.91,0,0,1-2.46-.4.75.75,0,0,0-.26,0,.75.75,0,0,1,.26,0A6.91,6.91,0,0,0,42.63,261.09Z"/><path class="cls-3" d="M52.47,257.71c2.44-.27,5.15.71,7.73,1.07l.28,1.49c-1.17.68-2.32,1.9-3.51,1.94-1.61.06-3.22.1-4.83.1,1.61,0,3.22,0,4.83-.1,1.19,0,2.35-1.26,3.51-1.94l-.28-1.49C57.62,258.42,54.91,257.44,52.47,257.71Z"/><path class="cls-3" d="M60.48,260.27l-.28-1.49c-2.58-.36-5.29-1.34-7.73-1.07a5.13,5.13,0,0,0-.67.09c-3.14.66-5.8,3.23-9.17,3.29a6.91,6.91,0,0,1-2.46-.4.75.75,0,0,0-.26,0,8.65,8.65,0,0,0-2.24.91,134.46,134.46,0,0,0,14.47.75c1.61,0,3.22,0,4.83-.1C58.16,262.17,59.31,261,60.48,260.27Z"/><polygon class="cls-3" points="23.31 22.58 25.31 17.73 23.31 22.58 23.31 22.58"/><path class="cls-3" d="M23.31,22.58c-2-3.21-4.14-4.23-7.14-1.7h0C19.17,18.35,21.28,19.36,23.31,22.58Z"/><rect class="cls-3" x="28.73" y="15.51" height="7.51" transform="translate(-1.14 36.72) rotate(-64.15)"/><path class="cls-3" d="M23.31,22.58h0l2-4.85,0-.1h0l6.75,3.27L33.52,15c-4.64-2-15,1.16-17.35,5.84C19.17,18.35,21.28,19.37,23.31,22.58Z"/><path class="cls-3" d="M87.55,62.83A30.26,30.26,0,0,1,84.64,60h0A29.13,29.13,0,0,0,87.55,62.83Z"/><path class="cls-3" d="M95.11,68.2a52,52,0,0,1-3.53,4h0a52,52,0,0,0,3.53-4c.61-.86.72-1.45.43-1.86C95.83,66.75,95.72,67.34,95.11,68.2Z"/><path class="cls-3" d="M90.41,70.54l-4.74-6.6Z"/><path class="cls-3" d="M88,63.17c-.16-.1-.3-.22-.46-.34A29.13,29.13,0,0,1,84.64,60l-1.15.95,2.18,3,4.74,6.6,1.17,1.64a52,52,0,0,0,3.53-4c.61-.86.72-1.45.43-1.86a3.07,3.07,0,0,0-1.92-.87A19,19,0,0,1,88,63.17Z"/><path class="cls-3" d="M22.69,243.51c1.34-1.35,2.52-2.86,4-4.56C25.21,240.65,24,242.16,22.69,243.51Z"/><path class="cls-3" d="M22.69,243.51c-1.42,1.42-1.42,2.51-.05,3.38C21.27,246,21.27,244.93,22.69,243.51Z"/><path class="cls-3" d="M26.69,239c-1.48,1.7-2.66,3.21-4,4.56s-1.42,2.51-.05,3.38a4.61,4.61,0,0,0,.67.35,30.73,30.73,0,0,0,2.92,1C29.49,243,29.53,240.37,26.69,239Z"/><polygon class="cls-3" points="30.05 221.32 30.05 221.32 27.47 228.61 27.48 228.61 30.05 221.32"/><path class="cls-3" d="M24.93,223.82h0a6.17,6.17,0,0,0-.06,4.75A6.17,6.17,0,0,1,24.93,223.82Z"/><path class="cls-3" d="M24.93,223.82a6.17,6.17,0,0,0-.06,4.75c.93,2.15,3.11,3.52,4.41,5.26.14.18.26.37.38.56q.48-6.49,1-13l-.58-.09-2.58,7.29h0Z"/><path class="cls-3" d="M42.08,205.87h0c1.77,6.56.8,11.54-4.22,15.12h0C42.88,217.41,43.85,212.43,42.08,205.87Z"/><path class="cls-3" d="M42.08,205.87c-1.54,5.53-2.9,10.39-4.22,15.12C42.88,217.41,43.85,212.43,42.08,205.87Z"/><path class="cls-3" d="M31.91,258.19a6.12,6.12,0,0,1,3,4h0A6.12,6.12,0,0,0,31.91,258.19Z"/><path class="cls-3" d="M31.91,258.19a6.87,6.87,0,0,0-6.56.26l9.54,3.74A6.12,6.12,0,0,0,31.91,258.19Z"/><path class="cls-3" d="M32.32,61.08c-1.22,2.25-2.38,4.53-3.7,6.72-.22.37-1.13.48-1.68.42-.18,0-.47-.73-.47-1.18,0,.45.29,1.16.47,1.18.55.06,1.46,0,1.68-.42,1.32-2.19,2.49-4.47,3.7-6.72l-.45-.3.45.3Z"/><path class="cls-3" d="M26.5,66.86a1,1,0,0,0,0,.18c0,.45.29,1.16.47,1.18.55.06,1.46,0,1.68-.42,1.32-2.19,2.48-4.47,3.7-6.72h0l-.45-.3-.42-.29C28.82,61.78,27.4,64.13,26.5,66.86Z"/><path class="cls-3" d="M86.9,110.54h0l-6.12-9.12h0Z"/><path class="cls-3" d="M80.78,101.42l6.12,9.12C87.33,105.5,85.46,102.78,80.78,101.42Z"/><path class="cls-3" d="M30.63,217.66c.3-1.93-.77-3.34-3.73-5.33h0C29.86,214.33,30.93,215.73,30.63,217.66Z"/><path class="cls-3" d="M30,219.58a7.26,7.26,0,0,0,.63-1.92c.3-1.93-.77-3.33-3.73-5.33C26.85,215.26,26.33,218.11,30,219.58Z"/><path class="cls-3" d="M15.24,215.18a3.87,3.87,0,0,1-.26-1.63A3.87,3.87,0,0,0,15.24,215.18Z"/><path class="cls-3" d="M16.43,211.43A17.16,17.16,0,0,1,18.87,210h0A18.07,18.07,0,0,0,16.43,211.43Z"/><path class="cls-3" d="M15,213.55a3.87,3.87,0,0,0,.26,1.63,10.38,10.38,0,0,0,.51,1.22L18.87,210a17.16,17.16,0,0,0-2.44,1.46A3.14,3.14,0,0,0,15,213.55Z"/><path class="cls-3" d="M91.24,101.22h0c2.54-1.78,5.3-3.45,4.84-7.44h0C96.54,97.77,93.78,99.44,91.24,101.22Z"/><path class="cls-3" d="M96.08,93.79l-4.84,7.43C93.78,99.44,96.54,97.77,96.08,93.79Z"/><polygon class="cls-3" points="50.95 220.15 50.95 213.42 50.95 213.42 50.95 220.15 50.95 220.15"/><path class="cls-3" d="M51,220.15v-6.73C48.87,216.93,48.9,218.69,51,220.15Z"/><path class="cls-3" d="M59.71,211.12a12.85,12.85,0,0,1-1.19,2.11l-.74-.08h0l.75.08a13.58,13.58,0,0,0,1.18-2.11,11.38,11.38,0,0,0,.51-2.71,1.89,1.89,0,0,0-.5-.28,1.89,1.89,0,0,1,.5.28A11.38,11.38,0,0,1,59.71,211.12Z"/><path class="cls-3" d="M57.47,210.6a6.42,6.42,0,0,0,.31,2.55l.74.08a12.85,12.85,0,0,0,1.19-2.11,11.38,11.38,0,0,0,.51-2.71,1.89,1.89,0,0,0-.5-.28,2,2,0,0,0-.55-.12A8.54,8.54,0,0,0,57.47,210.6Z"/><rect class="cls-3" x="59.11" y="40.75" width="3.09"/><polygon class="cls-3" points="59.11 45.05 60.16 44.93 62.2 40.75 59.11 40.75 59.11 45.05"/><polygon class="cls-3" points="53.35 112.72 53.35 112.72 53.35 112.72 53.35 112.72"/><path class="cls-5" d="M12.23,0c-23.15,0-6.4,59.26-6,69.26,2.86,70.5,17.9,98.17,19.26,96.13-3.74-15.56-5.14-17.36-5.95-20.87-1.11-4.79-1.53-9.37-2.41-14.2-.34-1.85,1.06-8.76,1.15-10.22,1.46-2,3.41-3.63,4.78-4,8.33-2.06,17.91,3.31,19.87,11.59,1.23,5.2,1.77,10.56,2.77,16.8,1.26-3.49,2.22-6.19,3.19-8.89,4.22-11.74,9.62-22.84,17.77-32.44a9.56,9.56,0,0,1,8.18-3.27c2.13.1,3.89.45,6-1.11,1.78-1.29,4.84-.91,7.35-1.11s4-1.62,5.11-4a21,21,0,0,0,1-16.17c-4,1.31-7.79,2.62-11.64,3.78A6.3,6.3,0,0,1,80.34,81a8.37,8.37,0,0,1,.84-2.26C82.42,77,83.81,75.33,85.62,73c-4.87,1-7.79-1.65-11-3.47a14.88,14.88,0,0,0-2.24-1.36c-4.4-1.46-5.89-.39-6.8,4.19a88.88,88.88,0,0,1-3.08,12,19.23,19.23,0,0,1-3.92,6c-2,2.28-4.53,2.46-7,.44-.82-.66-2.46-1.56-3.53-2.26,1.76,0,2.75.15,3.33-.55,2-2.49.37-4.37,1.55-8.07,0,0-3,2.33-3.91,1.61C45.89,79.14,35.4,71.15,35.4,71.15l6.65-10.77-.54-1c-1.53.46-3.09.86-4.6,1.4-4.67,1.66-6.76,5.43-7.07,10C29.69,73.05,31.22,75,34,75.59a32.41,32.41,0,0,1,5.93,1.87c2.16.88,4,3,1.6,4.88-.46.37-.6,1.13-1.07,2.07,1.19-.12,2.93-1.07,3.85-1.16,0,0-1.77,5.06-3,4.87C36,87.3,31,85.72,26.76,81.31c-2.74-2.85-4.4-2.74-6.71.49-2.93,4.1-2.6,8.71-2.08,13.33.45,4,1.07,8.05,1.56,12.08a15.09,15.09,0,0,1-.32,2.8C14.55,98.93,10,88.7,15.08,77.32c1.65-3.7,2-3.61,5.27-1.42A20.45,20.45,0,0,0,25,78.15c1.82.64,3.47-1.31,3.36-4.07a11.37,11.37,0,0,0-1.38.5,11,11,0,0,0-1.28,1c-.16-4.13-2.82-3.74-5.41-3.67-2.15.05-4.37,1.44-6.39-.9-2.82-3.27-6.12-6.4-6.2-10.89,0-1.43,2.55-3.93,4.21-4.19,6.86-1.1,6.57-7,8.63-11.46A77.22,77.22,0,0,1,24.84,36c.38-.6,2.47-.7,3.44-.26,2.62,1.18,5,2.77,8.16,4.54-.13-2.82-.25-5.36-.37-8-1-.05-2.12.18-2.35-.17-2-3-4.64-1.8-7-1.2-3.27.83-6.44,2.09-9.89,3.24l-1-2.63-.94-.44-4.41,9.23L8.25,37.26,5.45,38.4C5.26,35.79,5,33.18,5,30.57c0-.56,1.17-1.13,1.82-1.66L14,23.09,13.72,22,5.46,20.72c-.06-.7-.15-1.62-.27-2.85l-2,.82,2-4.82-3-2c1.73-.59,2.9-1.11,4.12-1.39,1.83-.4,2.69,0,2,2.23a28.34,28.34,0,0,0-.54,5.71,14.61,14.61,0,0,0,3.7.51,15.67,15.67,0,0,0,3.49-1.24,25.67,25.67,0,0,0-1.44-3.37c-.84-1.41-1.89-2.69-2.78-3.93a28.26,28.26,0,0,0,.91-3.51c.35-3,2.09-4.49,5-4.21s4.14,2.15,3.6,5.86a7.88,7.88,0,0,0-1.18-2.33,2.64,2.64,0,0,0-2.05-.51A1.93,1.93,0,0,0,16,7.07c-.06,1.84.13,3.69.22,5.55,3.95-2.5,5.09-2.26,5.94,1.24.22,0,.54.09.62,0,2.58-3.22,5.35-2.33,8.83-1.26,5.3,1.63,11,2.06,16.42,3.21,5.2,1.09,9.63,3.8,13.66,7.24L49.45,17.69l-.51.82c3.72,4.12,7.24,8.47,11.24,12.3,3.18,3.05,4.18,6.94,5.09,10.8a6.1,6.1,0,0,0,3.54,4.61c5.78,2.94,12,2.4,18.08,2.24,10.08-.27,19,3,27.48,7.92,2.18,1.26,4.29,2.67,6.52,3.87,6.55,3.54,11.26,12.59,5.91,21.51-2.44,4-3.86,8.71-5.74,13.09l1.1.48c2.37-5.6,5-11.1,7.06-16.81,4.54-12.53,16.87-13.11,24.95-7.19C157.77,74,158,78,158.34,82a1.29,1.29,0,0,1-.28.93c-2.49,2.52-4.74,5.4-7.6,7.41-3.72,2.63-6.05,5.78-5.91,10.32.14,4.34-1.74,7.82-4,11.25-5.57,8.51-11,17.09-16.66,25.55-2.42,3.64-5.24,7-7.76,10.59-1.63,2.33-2.92,4.9-4.63,7.17-.74,1-2.15,1.45-3.25,2.16-.46-1.23-1.5-2.59-1.26-3.67,1.4-6.41,3-12.78,4.73-19.11,3-10.85,6.08-21.67,9.13-32.5l-1.17-.46c-.68,1.4-1.45,2.76-2,4.2-2.78,7.11-7.87,12.63-12.6,18.4-4.36.08-4.82,5.55-9.08,6.12,1.85,3.08.4,5.42-1.19,7.69-2.46,3.51-5.17,6.85-7.4,10.49-2.09,3.4-3.42,7.28-5.57,10.64-5,7.86-10.28,15.58-15.55,23.29a21,21,0,0,0-3.63,13.65,47.28,47.28,0,0,1-1.16,14c-1.91,7.56-4,15-4.08,22.88a6,6,0,0,1-.54,1.65l-3.94-.46,6.83,10.18c6.52-2.81,12-5.24,17.61-7.59,4.83-2.05,9.71-4,14.53-6,5.38-2.3,10.59-4.76,16.54-5.72,12.55-2,25-4.61,37.48-7.12a97.84,97.84,0,0,0,11.54-3.26c.9-.3,1.45-1.6,2.16-2.45a12.61,12.61,0,0,0-2.57-1.68c-5.85-2.06-11.73-4-18.49-6.33,1.9-2.83,3.09-5,4.63-6.86,5.05-6.15,6.11-13.47,6.44-21,.11-2.63,0-5.27,0-7.91,0-2.32-3-14.82-2.8-17.43.8-10-.31-31.26,4.57-30.77.17,0,11.17-26.36,11.17-26.36S170,62.88,136,66.07c-9.14.86-16.51-9.11-31.88-19.12-5.3-3.45-17.23-.32-23.33-4.05C47.55,22.58,77.4,30,68.17,24.43,46.12,11.08,23.8,0,12.23,0ZM50.46,106.68A6.66,6.66,0,0,1,53,109.8a7.22,7.22,0,0,1,.36,2.92h0L48,105.09C48.8,105.6,49.66,106.1,50.46,106.68Zm42.24,52h0c3.62-7.76,6.84-14.64,10-21.51h0C102,145.17,99.81,152.53,92.7,158.66Zm22.08,4.79h0c1.8-2.64,3-4.88,4.64-6.68,3.7-4,7.73-7.69,11.45-11.67s7.14-8,11.06-12.5h0C140.83,137.55,119,163,114.78,163.45Z"/><polygon class="cls-3" points="92.7 158.66 92.7 158.66 92.7 158.66 92.7 158.66"/><path class="cls-3" d="M127.05,152.5s-10.43,10.75-12.27,10.95h0c4.21-.45,26.05-25.9,27.15-30.85h0C141.29,135.42,127.05,152.5,127.05,152.5Z"/><path class="cls-3" d="M102.75,137.15c-3.21,6.87-6.43,13.75-10,21.51h0c3.62-7.76,6.84-14.64,10-21.51Z"/><path class="cls-3" d="M53.35,112.72c-2.08-3-3.72-5.3-5.36-7.63.81.51,1.67,1,2.47,1.59-.8-.58-1.66-1.08-2.47-1.59l5.36,7.63Z"/></g></g></svg>