<?xml version="1.0" encoding="utf-8"?>
<!-- Generator: Adobe Illustrator 25.2.0, SVG Export Plug-In . SVG Version: 6.00 Build 0)  -->
<svg version="1.1" id="Ebene_1" xmlns="http://www.w3.org/2000/svg" xmlns:xlink="http://www.w3.org/1999/xlink" x="0px" y="0px"
	 viewBox="0 0 163.3 262.3" style="enable-background:new 0 0 163.3 262.3;" xml:space="preserve">
<style type="text/css">
	.st0{fill:#FCEDED;}
	.st1{fill:none;}
	.st2{fill:#E0BBB0;}
	.st3{fill:#FFFFFF;}
	.st4{fill:#E0BCB1;}
</style>
<g id="Ebene_2_1_">
	<g id="Ebene_1-2">
		<path class="st0" d="M130.2,208.1l-27.4,13.2l-43.9,21.6l1.7,17.4l-22.8,1.3l-12.3-3.1l-2.7-11.6l6.6-13.1c0,0-12.5-12-13.5-17.4
			c-2.5-12.7,13.5-26.8,9.7-51c-1.3-8.5-10.5-32.8-10.5-32.8L9.8,93.8l-4.1-42L0.5,14.4l5-7.4l7.3-5.5l20.7,5.8l29,13.7l2.6,4.9
			l-1.2,6.4L78.2,45l24.5,3l27.2,18.3l20.6,0.9l8.2,7.8L130.2,208.1z"/>
		<path class="st1" d="M53,109.8c-0.5-1.3-1.4-2.4-2.5-3.1C51.6,107.4,52.5,108.5,53,109.8z"/>
		<path class="st1" d="M92.7,158.7L92.7,158.7c7.1-6.1,9.3-13.5,10-21.5l0,0C102,145.2,99.8,152.5,92.7,158.7z"/>
		<path class="st1" d="M130.9,145.1c3.7-3.9,7.1-8,11.1-12.5l0,0C138,137.1,134.5,141.2,130.9,145.1c-3.7,3.9-7.8,7.7-11.4,11.7
			c-1.7,1.8-2.8,4-4.6,6.7l0,0c1.8-2.6,3-4.9,4.6-6.7C123.1,152.8,127.2,149.1,130.9,145.1z"/>
		<path class="st2" d="M42.1,205.9L37.9,221l0,0C39.2,216.3,40.5,211.4,42.1,205.9L42.1,205.9z"/>
		<path class="st2" d="M84.6,60L84.6,60l-1.2,0.9l2.2,3l-2.2-3L84.6,60z"/>
		<path class="st2" d="M51,220.1L51,220.1c-2-1.5-2.1-3.2,0-6.7l0,0C48.9,216.9,48.9,218.7,51,220.1z"/>
		<path class="st2" d="M88,63.2c-0.2-0.1-0.3-0.2-0.5-0.3C87.7,62.9,87.8,63.1,88,63.2c1.7,1.1,3.6,1.8,5.6,2.3
			c0.7,0.1,1.4,0.4,1.9,0.9c-0.5-0.5-1.2-0.8-1.9-0.9C91.6,65,89.7,64.2,88,63.2z"/>
		<path class="st2" d="M86.9,110.5L86.9,110.5c0.4-5-1.4-7.8-6.1-9.1l0,0C85.5,102.8,87.3,105.5,86.9,110.5z"/>
		<path class="st2" d="M91.6,72.2L91.6,72.2l-1.2-1.6L91.6,72.2z"/>
		<path class="st2" d="M16.4,211.4c-0.8,0.5-1.3,1.2-1.4,2.1C15.2,212.7,15.7,211.9,16.4,211.4z"/>
		<path class="st2" d="M91.2,101.2L91.2,101.2l4.8-7.4l0,0L91.2,101.2z"/>
		<path class="st2" d="M23.3,247.2c1,0.4,1.9,0.7,2.9,1C25.2,248,24.3,247.6,23.3,247.2z"/>
		<path class="st2" d="M30,219.6c0.3-0.6,0.5-1.3,0.6-1.9C30.5,218.3,30.3,219,30,219.6c-3.7-1.5-3.1-4.3-3.1-7.3l0,0
			C26.9,215.3,26.3,218.1,30,219.6z"/>
		<path class="st2" d="M24.9,223.8l2.5,4.8l0,0L24.9,223.8z"/>
		<path class="st2" d="M29.7,234.4c0.3-4.3,0.7-8.7,1-13l-0.6-0.1l0,0l0.6,0.1C30.3,225.7,30,230.1,29.7,234.4z"/>
		<path class="st2" d="M57.8,213.1L57.8,213.1c-0.3-0.8-0.4-1.7-0.3-2.6c0.4-1,1-1.8,1.7-2.6c0.2,0,0.4,0.1,0.5,0.1
			c-0.2-0.1-0.4-0.1-0.5-0.1c-0.7,0.8-1.3,1.6-1.7,2.6C57.4,211.5,57.5,212.3,57.8,213.1z"/>
		<path class="st2" d="M33.5,15l-1.4,5.9l0,0L33.5,15c-4.6-2-15,1.2-17.4,5.9l0,0C18.6,16.2,28.9,13,33.5,15z"/>
		<polygon class="st2" points="59.1,45 60.2,44.9 62.2,40.7 62.2,40.7 60.2,44.9 		"/>
		<path class="st2" d="M24.9,228.6c0.9,2.1,3.1,3.5,4.4,5.3C28,232.1,25.8,230.7,24.9,228.6z"/>
		<path class="st2" d="M26.5,66.9c0,0.1,0,0.1,0,0.2C26.5,67,26.5,66.9,26.5,66.9c0.9-2.7,2.3-5.1,5-6.4l0.4,0.3l-0.4-0.3
			C28.8,61.8,27.4,64.1,26.5,66.9z"/>
		<path class="st2" d="M15.8,216.4l3.1-6.4l0,0L15.8,216.4L15.8,216.4z"/>
		<path class="st2" d="M39.9,260.6c-0.8,0.2-1.5,0.5-2.2,0.9c4.8,0.5,9.6,0.8,14.5,0.8c-4.8,0-9.7-0.2-14.5-0.8
			C38.4,261.2,39.1,260.8,39.9,260.6z"/>
		<path class="st2" d="M31.9,258.2c-2.1-1-4.6-0.9-6.6,0.3l9.5,3.7l0,0l-9.5-3.7C27.4,257.3,29.8,257.2,31.9,258.2z"/>
		<path class="st2" d="M52.5,257.7c-0.2,0-0.4,0-0.7,0.1c-3.1,0.7-5.8,3.2-9.2,3.3c3.4-0.1,6-2.6,9.2-3.3
			C52,257.8,52.2,257.7,52.5,257.7z"/>
		<path class="st3" d="M127.1,152.5c0,0,14.2-17.1,14.9-19.9c-3.9,4.4-7.4,8.6-11.1,12.5s-7.8,7.7-11.4,11.7c-1.7,1.8-2.8,4-4.6,6.7
			C116.6,163.2,127.1,152.5,127.1,152.5z"/>
		<path class="st3" d="M102.8,137.1c-3.2,6.9-6.4,13.8-10,21.5C99.8,152.5,102,145.2,102.8,137.1z"/>
		<path class="st3" d="M53.3,112.7c0.1-1,0-2-0.3-2.9c-0.5-1.3-1.4-2.4-2.5-3.1c-0.8-0.6-1.7-1.1-2.5-1.6
			C49.6,107.4,51.3,109.8,53.3,112.7z"/>
		<path class="st2" d="M42.6,261.1c-0.8,0-1.7-0.1-2.5-0.4c-0.1,0-0.2,0-0.3,0c0.1,0,0.2,0,0.3,0C41,261,41.8,261.1,42.6,261.1z"/>
		<path class="st2" d="M52.5,257.7c2.4-0.3,5.2,0.7,7.7,1.1l0.3,1.5c-1.2,0.7-2.3,1.9-3.5,1.9c-1.6,0.1-3.2,0.1-4.8,0.1
			c1.6,0,3.2,0,4.8-0.1c1.2,0,2.3-1.3,3.5-1.9l-0.3-1.5C57.6,258.4,54.9,257.4,52.5,257.7z"/>
		<path class="st2" d="M60.5,260.3l-0.3-1.5c-2.6-0.4-5.3-1.3-7.7-1.1c-0.2,0-0.4,0-0.7,0.1c-3.1,0.7-5.8,3.2-9.2,3.3
			c-0.8,0-1.7-0.1-2.5-0.4c-0.1,0-0.2,0-0.3,0c-0.8,0.2-1.5,0.5-2.2,0.9c4.8,0.5,9.6,0.8,14.5,0.8c1.6,0,3.2,0,4.8-0.1
			C58.2,262.2,59.3,261,60.5,260.3z"/>
		<polygon class="st2" points="23.3,22.6 25.3,17.7 23.3,22.6 		"/>
		<path class="st2" d="M23.3,22.6c-2-3.2-4.1-4.2-7.1-1.7l0,0C19.2,18.3,21.3,19.4,23.3,22.6z"/>
		<rect x="28.7" y="15.5" class="st2" width="0" height="7.5"/>
		<path class="st2" d="M23.3,22.6L23.3,22.6l2-4.9v-0.1l0,0l6.7,3.3l1.5-5.9c-4.6-2-15,1.2-17.4,5.8C19.2,18.3,21.3,19.4,23.3,22.6z
			"/>
		<path class="st2" d="M87.6,62.8c-1-0.9-2-1.8-2.9-2.8l0,0C85.5,61,86.5,62,87.6,62.8z"/>
		<path class="st2" d="M95.1,68.2c-1.1,1.4-2.3,2.7-3.5,4l0,0C92.8,70.9,94,69.6,95.1,68.2c0.6-0.9,0.7-1.4,0.4-1.9
			C95.8,66.7,95.7,67.3,95.1,68.2z"/>
		<path class="st2" d="M90.4,70.5l-4.7-6.6L90.4,70.5z"/>
		<path class="st2" d="M88,63.2c-0.2-0.1-0.3-0.2-0.5-0.3c-1-0.9-2-1.8-2.9-2.8l-1.2,1l2.2,3l4.7,6.6l1.2,1.6c1.2-1.3,2.4-2.6,3.5-4
			c0.6-0.9,0.7-1.4,0.4-1.9c-0.5-0.5-1.2-0.8-1.9-0.9C91.6,65,89.7,64.2,88,63.2z"/>
		<path class="st2" d="M22.7,243.5c1.3-1.4,2.5-2.9,4-4.6C25.2,240.6,24,242.2,22.7,243.5z"/>
		<path class="st2" d="M22.7,243.5c-1.4,1.4-1.4,2.5,0,3.4C21.3,246,21.3,244.9,22.7,243.5z"/>
		<path class="st2" d="M26.7,239c-1.5,1.7-2.7,3.2-4,4.6s-1.4,2.5,0,3.4c0.2,0.1,0.4,0.3,0.7,0.4c1,0.4,1.9,0.7,2.9,1
			C29.5,243,29.5,240.4,26.7,239z"/>
		<polygon class="st2" points="30,221.3 30,221.3 27.5,228.6 27.5,228.6 		"/>
		<path class="st2" d="M24.9,223.8L24.9,223.8c-0.7,1.5-0.7,3.2-0.1,4.8C24.3,227,24.3,225.3,24.9,223.8z"/>
		<path class="st2" d="M24.9,223.8c-0.7,1.5-0.7,3.2-0.1,4.8c0.9,2.1,3.1,3.5,4.4,5.3c0.1,0.2,0.3,0.4,0.4,0.6c0.3-4.3,0.7-8.7,1-13
			l-0.6-0.1l-2.6,7.3l0,0L24.9,223.8z"/>
		<path class="st2" d="M42.1,205.9L42.1,205.9c1.8,6.6,0.8,11.5-4.2,15.1l0,0C42.9,217.4,43.8,212.4,42.1,205.9z"/>
		<path class="st2" d="M42.1,205.9c-1.5,5.5-2.9,10.4-4.2,15.1C42.9,217.4,43.8,212.4,42.1,205.9z"/>
		<path class="st2" d="M31.9,258.2c1.5,0.8,2.6,2.3,3,4l0,0C34.5,260.5,33.4,259,31.9,258.2z"/>
		<path class="st2" d="M31.9,258.2c-2.1-1-4.6-0.9-6.6,0.3l9.5,3.7C34.5,260.5,33.4,259,31.9,258.2z"/>
		<path class="st2" d="M32.3,61.1c-1.2,2.2-2.4,4.5-3.7,6.7c-0.2,0.4-1.1,0.5-1.7,0.4c-0.2,0-0.5-0.7-0.5-1.2c0,0.4,0.3,1.2,0.5,1.2
			c0.5,0.1,1.5,0,1.7-0.4C29.9,65.6,31.1,63.3,32.3,61.1l-0.5-0.3L32.3,61.1z"/>
		<path class="st2" d="M26.5,66.9c0,0.1,0,0.1,0,0.2c0,0.4,0.3,1.2,0.5,1.2c0.5,0.1,1.5,0,1.7-0.4c1.3-2.2,2.5-4.5,3.7-6.7l0,0
			l-0.5-0.3l-0.4-0.3C28.8,61.8,27.4,64.1,26.5,66.9z"/>
		<path class="st2" d="M86.9,110.5L86.9,110.5l-6.1-9.1l0,0L86.9,110.5z"/>
		<path class="st2" d="M80.8,101.4l6.1,9.1C87.3,105.5,85.5,102.8,80.8,101.4z"/>
		<path class="st2" d="M30.6,217.7c0.3-1.9-0.8-3.3-3.7-5.3l0,0C29.9,214.3,30.9,215.7,30.6,217.7z"/>
		<path class="st2" d="M30,219.6c0.3-0.6,0.5-1.3,0.6-1.9c0.3-1.9-0.8-3.3-3.7-5.3C26.9,215.3,26.3,218.1,30,219.6z"/>
		<path class="st2" d="M15.2,215.2c-0.2-0.5-0.3-1.1-0.3-1.6C14.9,214.1,15,214.7,15.2,215.2z"/>
		<path class="st2" d="M16.4,211.4c0.8-0.5,1.6-1,2.4-1.4l0,0C18,210.4,17.2,210.9,16.4,211.4z"/>
		<path class="st2" d="M15,213.6c0,0.6,0.1,1.1,0.3,1.6c0.1,0.4,0.3,0.8,0.5,1.2l3.1-6.4c-0.9,0.4-1.7,0.9-2.4,1.5
			C15.7,211.9,15.2,212.7,15,213.6z"/>
		<path class="st2" d="M91.2,101.2L91.2,101.2c2.5-1.8,5.3-3.4,4.8-7.4l0,0C96.5,97.8,93.8,99.4,91.2,101.2z"/>
		<path class="st2" d="M96.1,93.8l-4.8,7.4C93.8,99.4,96.5,97.8,96.1,93.8z"/>
		<polygon class="st2" points="51,220.1 51,213.4 51,213.4 51,220.1 		"/>
		<path class="st2" d="M51,220.1v-6.7C48.9,216.9,48.9,218.7,51,220.1z"/>
		<path class="st2" d="M59.7,211.1c-0.3,0.7-0.7,1.4-1.2,2.1l-0.7-0.1l0,0l0.8,0.1C59,212.6,59.4,211.9,59.7,211.1
			c0.3-0.9,0.5-1.8,0.5-2.7c-0.2-0.1-0.3-0.2-0.5-0.3c0.2,0.1,0.3,0.2,0.5,0.3C60.2,209.3,60,210.2,59.7,211.1z"/>
		<path class="st2" d="M57.5,210.6c-0.1,0.9,0,1.7,0.3,2.6l0.7,0.1c0.5-0.7,0.9-1.4,1.2-2.1c0.3-0.9,0.5-1.8,0.5-2.7
			c-0.2-0.1-0.3-0.2-0.5-0.3c-0.2-0.1-0.4-0.1-0.5-0.1C58.5,208.8,57.9,209.6,57.5,210.6z"/>
		<polygon class="st2" points="59.1,40.7 62.2,40.7 62.2,40.7 		"/>
		<polygon class="st2" points="59.1,45 60.2,44.9 62.2,40.7 59.1,40.7 		"/>
		<polygon class="st2" points="53.3,112.7 53.3,112.7 53.3,112.7 		"/>
		<path class="st4" d="M12.2,0c-23.1,0-6.4,59.3-6,69.3c2.9,70.5,17.9,98.2,19.3,96.1c-3.7-15.6-5.1-17.4-5.9-20.9
			c-1.1-4.8-1.5-9.4-2.4-14.2c-0.3-1.9,1.1-8.8,1.1-10.2c1.5-2,3.4-3.6,4.8-4c8.3-2.1,17.9,3.3,19.9,11.6c1.2,5.2,1.8,10.6,2.8,16.8
			c1.3-3.5,2.2-6.2,3.2-8.9c4.2-11.7,9.6-22.8,17.8-32.4c2-2.4,5.1-3.6,8.2-3.3c2.1,0.1,3.9,0.4,6-1.1c1.8-1.3,4.8-0.9,7.3-1.1
			s4-1.6,5.1-4c2.5-5,2.8-10.9,1-16.2c-4,1.3-7.8,2.6-11.6,3.8c-0.8,0.1-1.6,0-2.3-0.3c0.2-0.8,0.5-1.6,0.8-2.3
			c1.2-1.7,2.6-3.4,4.4-5.7c-4.9,1-7.8-1.7-11-3.5c-0.7-0.5-1.5-1-2.2-1.4c-4.4-1.5-5.9-0.4-6.8,4.2c-0.7,4.1-1.8,8.1-3.1,12
			c-0.9,2.2-2.2,4.3-3.9,6c-2,2.3-4.5,2.5-7,0.4c-0.8-0.7-2.5-1.6-3.5-2.3c1.8,0,2.8,0.2,3.3-0.6c2-2.5,0.4-4.4,1.5-8.1
			c0,0-3,2.3-3.9,1.6c-3.1-2.4-13.6-10.4-13.6-10.4l6.7-10.8l-0.5-1c-1.5,0.5-3.1,0.9-4.6,1.4c-4.7,1.7-6.8,5.4-7.1,10
			C29.7,73,31.2,75,34,75.6c2,0.4,4,1.1,5.9,1.9c2.2,0.9,4,3,1.6,4.9c-0.5,0.4-0.6,1.1-1.1,2.1c1.2-0.1,2.9-1.1,3.8-1.2
			c0,0-1.8,5.1-3,4.9C36,87.3,31,85.7,26.8,81.3c-2.7-2.8-4.4-2.7-6.7,0.5c-2.9,4.1-2.6,8.7-2.1,13.3c0.5,4,1.1,8.1,1.6,12.1
			c0,0.9-0.1,1.9-0.3,2.8c-4.7-11.1-9.2-21.3-4.1-32.7c1.6-3.7,2-3.6,5.3-1.4c1.4,0.9,3,1.7,4.6,2.2c1.8,0.6,3.5-1.3,3.4-4.1
			c-0.5,0.1-0.9,0.3-1.4,0.5c-0.5,0.3-0.9,0.6-1.3,1c-0.2-4.1-2.8-3.7-5.4-3.7c-2.1,0.1-4.4,1.4-6.4-0.9c-2.8-3.3-6.1-6.4-6.2-10.9
			c0-1.4,2.6-3.9,4.2-4.2c6.9-1.1,6.6-7,8.6-11.5c1.3-2.9,2.7-5.7,4.3-8.5c0.4-0.6,2.5-0.7,3.4-0.3c2.6,1.2,5,2.8,8.2,4.5
			c-0.1-2.8-0.2-5.4-0.4-8c-1,0-2.1,0.2-2.3-0.2c-2-3-4.6-1.8-7-1.2c-3.3,0.8-6.4,2.1-9.9,3.2l-1-2.6l-0.9-0.4l-4.4,9.2l-2.2-3.1
			l-2.8,1.1C5.3,35.8,5,33.2,5,30.6c0-0.6,1.2-1.1,1.8-1.7l7.2-5.8L13.7,22l-8.3-1.3c-0.1-0.7-0.2-1.6-0.3-2.9l-2,0.8l2-4.8l-3-2
			c1.7-0.6,2.9-1.1,4.1-1.4c1.8-0.4,2.7,0,2,2.2c-0.4,1.9-0.6,3.8-0.5,5.7c1.2,0.3,2.4,0.5,3.7,0.5c1.2-0.3,2.4-0.7,3.5-1.2
			c-0.4-1.2-0.9-2.3-1.4-3.4c-0.8-1.4-1.9-2.7-2.8-3.9c0.4-1.1,0.7-2.3,0.9-3.5c0.4-3,2.1-4.5,5-4.2s4.1,2.2,3.6,5.9
			c-0.3-0.8-0.7-1.6-1.2-2.3c-0.6-0.4-1.3-0.6-2-0.5c-0.5,0.3-0.9,0.8-1,1.4c-0.1,1.8,0.1,3.7,0.2,5.6c4-2.5,5.1-2.3,5.9,1.2
			c0.2,0,0.5,0.1,0.6,0c2.6-3.2,5.4-2.3,8.8-1.3c5.3,1.6,11,2.1,16.4,3.2c5.2,1.1,9.6,3.8,13.7,7.2l-12.2-5.4l-0.5,0.8
			c3.7,4.1,7.2,8.5,11.2,12.3c3.2,3,4.2,6.9,5.1,10.8c0.3,2,1.7,3.8,3.5,4.6c5.8,2.9,12,2.4,18.1,2.2c10.1-0.3,19,3,27.5,7.9
			c2.2,1.3,4.3,2.7,6.5,3.9c6.6,3.5,11.3,12.6,5.9,21.5c-2.4,4-3.9,8.7-5.7,13.1l1.1,0.5c2.4-5.6,5-11.1,7.1-16.8
			c4.5-12.5,16.9-13.1,24.9-7.2c3.6,2.7,3.8,6.7,4.2,10.7c0,0.3-0.1,0.7-0.3,0.9c-2.5,2.5-4.7,5.4-7.6,7.4
			c-3.7,2.6-6.1,5.8-5.9,10.3c0.1,4.3-1.7,7.8-4,11.2c-5.6,8.5-11,17.1-16.7,25.6c-2.4,3.6-5.2,7-7.8,10.6c-1.6,2.3-2.9,4.9-4.6,7.2
			c-0.7,1-2.2,1.4-3.2,2.2c-0.5-1.2-1.5-2.6-1.3-3.7c1.4-6.4,3-12.8,4.7-19.1c3-10.9,6.1-21.7,9.1-32.5l-1.2-0.5
			c-0.7,1.4-1.4,2.8-2,4.2c-2.8,7.1-7.9,12.6-12.6,18.4c-4.4,0.1-4.8,5.6-9.1,6.1c1.8,3.1,0.4,5.4-1.2,7.7
			c-2.5,3.5-5.2,6.9-7.4,10.5c-2.1,3.4-3.4,7.3-5.6,10.6c-5,7.9-10.3,15.6-15.6,23.3c-2.7,4-4,8.8-3.6,13.6c0.3,4.7-0.1,9.4-1.2,14
			c-1.9,7.6-4,15-4.1,22.9c-0.1,0.6-0.3,1.1-0.5,1.6l-3.9-0.5l6.8,10.2c6.5-2.8,12-5.2,17.6-7.6c4.8-2.1,9.7-4,14.5-6
			c5.4-2.3,10.6-4.8,16.5-5.7c12.6-2,25-4.6,37.5-7.1c3.9-0.8,7.8-1.9,11.5-3.3c0.9-0.3,1.4-1.6,2.2-2.4c-0.8-0.7-1.6-1.2-2.6-1.7
			c-5.9-2.1-11.7-4-18.5-6.3c1.9-2.8,3.1-5,4.6-6.9c5.1-6.1,6.1-13.5,6.4-21c0.1-2.6,0-5.3,0-7.9c0-2.3-3-14.8-2.8-17.4
			c0.8-10-0.3-31.3,4.6-30.8c0.2,0,11.2-26.4,11.2-26.4s7.4-31-26.6-27.8c-9.1,0.9-16.5-9.1-31.9-19.1c-5.3-3.5-17.2-0.3-23.3-4
			C47.5,22.6,77.4,30,68.2,24.4C46.1,11.1,23.8,0,12.2,0z M50.5,106.7c1.1,0.8,2,1.8,2.5,3.1c0.3,0.9,0.4,1.9,0.4,2.9l0,0l-5.4-7.6
			C48.8,105.6,49.7,106.1,50.5,106.7z M92.7,158.7L92.7,158.7c3.6-7.8,6.8-14.6,10-21.5l0,0C102,145.2,99.8,152.5,92.7,158.7
			L92.7,158.7z M114.8,163.5L114.8,163.5c1.8-2.6,3-4.9,4.6-6.7c3.7-4,7.7-7.7,11.4-11.7c3.7-4,7.1-8,11.1-12.5l0,0
			C140.8,137.6,119,163,114.8,163.5L114.8,163.5z"/>
		<polygon class="st2" points="92.7,158.7 92.7,158.7 92.7,158.7 		"/>
		<path class="st2" d="M127.1,152.5c0,0-10.4,10.8-12.3,10.9l0,0c4.2-0.4,26.1-25.9,27.1-30.9l0,0
			C141.3,135.4,127.1,152.5,127.1,152.5z"/>
		<path class="st2" d="M102.8,137.1c-3.2,6.9-6.4,13.8-10,21.5l0,0C96.4,150.9,99.6,144,102.8,137.1z"/>
		<path class="st2" d="M53.3,112.7c-2.1-3-3.7-5.3-5.4-7.6c0.8,0.5,1.7,1,2.5,1.6c-0.8-0.6-1.7-1.1-2.5-1.6L53.3,112.7z"/>
	</g>
</g>
</svg>
