<svg xmlns="http://www.w3.org/2000/svg" width="116.619" height="118.389" viewBox="0 0 116.619 118.389"><g transform="translate(-1523.303 -1418.864)"><path d="M1522.991,1482.913l9.565,32.315,26.332,6.567h36.36l20.942-6.567,10.815-23.152v-19.938L1616.19,1449.5l-77.881,8.994Z" transform="translate(6.263 14.203)" fill="#fff"/><g transform="translate(1523.303 1418.864)"><path d="M6,36.275H39.124v-.4c0-.673.179-1.413.269-2.243v-.269c.157-1.121.314-2.243.449-3.229H6Z" transform="translate(-6 24.881)" fill="#a8c837"/><path d="M41.24,34.1Z" transform="translate(37.792 29.814)" fill="#a8c837"/><path d="M42.541,30.651v.875H77.8V25.47H42.07Q42.249,28,42.541,30.651Z" transform="translate(38.823 19.09)" fill="#a8c837"/><path d="M40.627,31.525c.157-.942.314-1.861.493-2.781s.4-2.243.628-3.274H6v6.055Z" transform="translate(-6 19.09)" fill="#a8c837"/><path d="M47.133,22.441A45.436,45.436,0,0,1,53.861,6.384c.179-.247.2-.449,0-.606a.4.4,0,0,0-.336-.157.381.381,0,0,0-.247,0A47.971,47.971,0,0,0,41.436,20.109,92.2,92.2,0,0,0,34.08,37.647,144.29,144.29,0,0,0,29.595,56.1c-.561,3.028-1.032,6.123-1.48,9.442s-.785,6.257-.942,9.778v.763a11.089,11.089,0,1,0,21.821-2.243c-.628-2.422-1.166-5.517-1.615-8.231S46.5,59.8,46.213,57.046a131.559,131.559,0,0,1-.875-17.313,84.662,84.662,0,0,1,1.794-17.291Z" transform="translate(20.304 -5.601)" fill="#a8c837"/><path d="M42.961,32.57l.135.807c.135.807.314,1.817.493,2.848H77.162V30.17H42.58C42.715,30.977,42.827,31.762,42.961,32.57Z" transform="translate(39.457 24.93)" fill="#a8c837"/><path d="M87.095,53.35a26.092,26.092,0,0,1-48.666-14.2v-.83c0-1.166.135-2.243.224-3.454H6V87.618H122.619V34.87H90.078a26.1,26.1,0,0,1-2.983,18.48Zm-64.9-3.611a3.947,3.947,0,1,1,1.172,2.807,3.947,3.947,0,0,1-1.172-2.807Zm6.571,22.427a3.914,3.914,0,1,0,0-.067ZM49.822,82.706a3.914,3.914,0,1,0,0-.067Zm28.975,0a3.914,3.914,0,1,0,0-.067Zm23.638-36.914a3.947,3.947,0,1,1-3.947,3.947,3.947,3.947,0,0,1,3.947-3.947ZM99.856,64.316a3.947,3.947,0,1,1-3.947,3.947,3.947,3.947,0,0,1,3.947-3.947Z" transform="translate(-6 30.771)" fill="#a8c837"/></g></g></svg>