<svg xmlns="http://www.w3.org/2000/svg" width="138.57" height="164.523" viewBox="0 0 138.57 164.523"><g transform="translate(-1673.43 -1922.671)"><path d="M1718.708,2044.965s-3.253,16.719,5.11,23.594.518,11.039,10.629,12.3,18.723,6.836,24.016,5.676,11.521-1.676,17.062-5.676,8.3-8.7,10.521-12.3-4.984-7.539,0-14.727,7.38-10.02,6.55-21.328-6.55-21.777-6.55-21.777Z" fill="#fdf7f7"/><g transform="translate(1673.43 1922.671)"><path d="M2371.344,5463.173c-.224-.2-.525-.474,0,0Z" transform="translate(-2277.88 -5350.055)" fill="#a8c837"/><g transform="translate(0)"><rect width="3.318" height="3.324" transform="matrix(0.866, -0.5, 0.5, 0.866, 40.44, 64.883)" fill="#a8c837"/><rect width="3.312" height="3.325" transform="translate(33.687 50.591)" fill="#a8c837"/><rect width="3.318" height="3.324" transform="matrix(0.866, -0.5, 0.5, 0.866, 44.349, 62.617)" fill="#a8c837"/><path d="M1655.344,3464.522a26.477,26.477,0,0,0,1.515,6.156,25.61,25.61,0,0,0,2.926,5.56,24.536,24.536,0,0,0,3.367,3.9,23.255,23.255,0,0,0,4.061,3.041,21.718,21.718,0,0,0,11.043,3.029q.4,0,.807-.015a21.9,21.9,0,0,0,11.631-3.89,24.482,24.482,0,0,0,7.874-9.1,26.647,26.647,0,0,0,2.826-11.981,20.559,20.559,0,0,0-2.112-9.78,21.391,21.391,0,0,0-4.928-5.953l-.321-.291,0,0-.215-.195h0l-.031-.029-.007-.006-.135-.123a34.26,34.26,0,0,1-5.495-5.691,15.835,15.835,0,0,1-2.428-7.181,229.161,229.161,0,0,1-1.194-35.095c.431-11.793,1.665-22.237,3.569-30.2a75.6,75.6,0,0,1,12.413-27.094c.038-.053.4-.544.523-.7.23-.31.408-.547.528-.7h0l.1-.127.072-.146a5.515,5.515,0,0,0,.681-2.931,2.913,2.913,0,0,0-1.219-2.148,3.791,3.791,0,0,0-1.832-.667,5.661,5.661,0,0,0-2.731.383,22,22,0,0,0-6.791,5.848,57.617,57.617,0,0,0-5.982,9.118,101.984,101.984,0,0,0-9.753,26.127,308.528,308.528,0,0,0-5.13,53.4c-.057,2.558-.106,4.768-.2,6.588a14.545,14.545,0,0,1-1.15,5.4,14.383,14.383,0,0,1-2.934,4.075,6.847,6.847,0,0,0-1.934,5.347,15.217,15.217,0,0,0,1.995,6.161c2.238,4.218,6.034,8.745,9.383,12.739a64.114,64.114,0,0,1,6.014,7.844,4.56,4.56,0,0,1,.628,1.455,3.654,3.654,0,0,1-2.976-.011,14.863,14.863,0,0,1-3.99-2.4,80.487,80.487,0,0,1-8.4-8.257c-3.5-3.792-6.036-6.531-8.021-6.288a2.2,2.2,0,0,0-1.855,1.46A7.108,7.108,0,0,0,1655.344,3464.522Zm3.744-1.151c1.052.975,2.574,2.623,4.3,4.487,5.663,6.13,13.24,14.33,18.859,11.152,1.808-1.023,1.66-2.839.335-5.2a65.3,65.3,0,0,0-6.317-8.27c-6.146-7.331-13.654-16.285-9.574-20.511a15.506,15.506,0,0,0,4.866-11.286c.088-1.776.138-4.022.2-6.665a305.164,305.164,0,0,1,5.086-52.939,99.37,99.37,0,0,1,9.46-25.309c3.44-6.345,7.469-11.747,11.575-13.8a2.642,2.642,0,0,1,1.185-.11,1.145,1.145,0,0,1,.515.154.23.23,0,0,1,.078.171,2.729,2.729,0,0,1-.363,1.315c-.211.277-.372.49-.482.638h0l-.536.737a78,78,0,0,0-12.869,28.088c-2.174,9.094-3.256,20.1-3.645,30.75a234.969,234.969,0,0,0,1.215,35.565c1,7.5,3.417,9.686,8.815,14.576,1.258,1.139-1.043-.953.706.636a19.051,19.051,0,0,1,4.331,5.188,17.666,17.666,0,0,1,1.787,8.479,23.716,23.716,0,0,1-2.522,10.723,21.645,21.645,0,0,1-6.962,8.064,19.133,19.133,0,0,1-10.162,3.4,18.94,18.94,0,0,1-10.347-2.631,20.431,20.431,0,0,1-3.572-2.68,21.692,21.692,0,0,1-2.986-3.451,22.76,22.76,0,0,1-2.6-4.949,24.956,24.956,0,0,1-1.595-5.622C1657.652,3462.327,1657.364,3461.771,1659.089,3463.371Z" transform="translate(-1599.829 -3332.115)" fill="#a8c837"/><path d="M1170.306,4549.718l-2.321,1.345,1.656,2.88,2.4-1.392v2.691h3.312v-2.783l2.321,1.346,1.656-2.88-2.4-1.392,2.321-1.346-1.656-2.879-2.4,1.392v-2.691h-3.312v2.784l-2.321-1.346-1.656,2.88Zm1.994-2.384h2.635l1.318,2.292-1.318,2.292H1172.3l-1.318-2.292Z" transform="translate(-1138.196 -4479.822)" fill="#a8c837"/><rect width="3.312" height="3.325" transform="translate(33.687 59.655)" fill="#a8c837"/><rect width="3.312" height="3.325" transform="translate(33.845 85.692)" fill="#a8c837"/><rect width="3.312" height="3.325" transform="translate(33.845 81.16)" fill="#a8c837"/><rect width="3.312" height="3.325" transform="translate(33.845 76.628)" fill="#a8c837"/><rect width="3.312" height="3.325" transform="translate(33.687 55.123)" fill="#a8c837"/><rect width="3.318" height="3.324" transform="matrix(0.866, -0.5, 0.5, 0.866, 48.258, 60.351)" fill="#a8c837"/><rect width="3.324" height="3.318" transform="translate(40.519 74.587) rotate(-60)" fill="#a8c837"/><rect width="3.324" height="3.318" transform="matrix(0.5, -0.866, 0.866, 0.5, 44.428, 76.853)" fill="#a8c837"/><rect width="3.317" height="3.325" transform="matrix(0.886, -0.463, 0.463, 0.886, 51.024, 102.258)" fill="#a8c837"/><rect width="3.317" height="3.325" transform="translate(48.935 98.24) rotate(-27.565)" fill="#a8c837"/><rect width="3.317" height="3.325" transform="matrix(0.886, -0.463, 0.463, 0.886, 46.847, 94.222)" fill="#a8c837"/><rect width="3.317" height="3.325" transform="translate(44.758 90.205) rotate(-27.565)" fill="#a8c837"/><rect width="3.317" height="3.325" transform="translate(42.669 86.187) rotate(-27.565)" fill="#a8c837"/><rect width="3.317" height="3.325" transform="matrix(0.886, -0.463, 0.463, 0.886, 40.581, 82.169)" fill="#a8c837"/><rect width="3.324" height="3.318" transform="matrix(0.5, -0.866, 0.866, 0.5, 48.337, 79.119)" fill="#a8c837"/><rect width="3.317" height="3.325" transform="matrix(0.886, -0.463, 0.463, 0.886, 4.177, 11.555)" fill="#a8c837"/><rect width="3.317" height="3.325" transform="matrix(0.886, -0.463, 0.463, 0.886, 6.266, 15.573)" fill="#a8c837"/><rect width="3.317" height="3.325" transform="translate(8.355 19.59) rotate(-27.565)" fill="#a8c837"/><rect width="3.317" height="3.325" transform="matrix(0.886, -0.463, 0.463, 0.886, 2.089, 7.537)" fill="#a8c837"/><rect width="3.317" height="3.325" transform="translate(16.71 35.661) rotate(-27.565)" fill="#a8c837"/><rect width="3.317" height="3.325" transform="translate(0 3.52) rotate(-27.565)" fill="#a8c837"/><rect width="3.317" height="3.325" transform="matrix(0.886, -0.463, 0.463, 0.886, 14.621, 31.643)" fill="#a8c837"/><path d="M988.329,5393.237H988.3a7.227,7.227,0,0,0-7.775,4.945c-1.255,3.108-1.575,7.357-1.946,12.278a89.211,89.211,0,0,1-1.621,12.872,28.337,28.337,0,0,1-5.4,11.936,25.488,25.488,0,0,1-9.528,7.131,34.31,34.31,0,0,1-12.956,2.852,35.277,35.277,0,0,1-13.607-2.287,26.353,26.353,0,0,1-10.28-6.939,27.315,27.315,0,0,1-5.938-12.219,86.122,86.122,0,0,1-1.731-13.346c-.372-4.933-.693-9.193-1.956-12.3a7.863,7.863,0,0,0-2.842-3.753,7.974,7.974,0,0,0-5.026-1.162l-23.458.072v3.317l23.6-.073h.027c2.421-.134,3.92,1.007,4.86,3.7.9,2.585,1.178,6.231,1.5,10.453a87.836,87.836,0,0,0,1.86,14.093,30.341,30.341,0,0,0,6.648,13.434,27.9,27.9,0,0,0,5.284,4.577,32.243,32.243,0,0,0,6.265,3.246,38.4,38.4,0,0,0,13.81,2.522q.534,0,1.07-.014a37.648,37.648,0,0,0,14.221-3.138,28.76,28.76,0,0,0,10.745-8.065,31.351,31.351,0,0,0,6.027-13.085,91,91,0,0,0,1.737-13.569c.318-4.222.593-7.868,1.5-10.453.94-2.689,2.437-3.831,4.857-3.7l.057,0h19.766v-3.325Z" transform="translate(-869.487 -5284.058)" fill="#a8c837"/><rect width="3.317" height="3.325" transform="translate(10.443 23.608) rotate(-27.565)" fill="#a8c837"/><rect width="3.317" height="3.325" transform="matrix(0.886, -0.463, 0.463, 0.886, 12.532, 27.626)" fill="#a8c837"/><rect width="3.317" height="3.325" transform="translate(18.798 39.679) rotate(-27.565)" fill="#a8c837"/><rect width="3.324" height="3.318" transform="translate(17.983 61.706) rotate(-60)" fill="#a8c837"/><rect width="3.318" height="3.324" transform="matrix(0.866, -0.5, 0.5, 0.866, 18.062, 78.04)" fill="#a8c837"/><rect width="3.318" height="3.324" transform="translate(25.88 73.508) rotate(-30)" fill="#a8c837"/><rect width="3.324" height="3.318" transform="matrix(0.5, -0.866, 0.866, 0.5, 21.892, 63.972)" fill="#a8c837"/><rect width="3.318" height="3.324" transform="translate(21.971 75.774) rotate(-30)" fill="#a8c837"/><rect width="3.324" height="3.318" transform="matrix(0.5, -0.866, 0.866, 0.5, 25.801, 66.238)" fill="#a8c837"/><rect width="3.317" height="3.325" transform="translate(22.976 47.714) rotate(-27.565)" fill="#a8c837"/><rect width="3.317" height="3.325" transform="translate(20.887 43.697) rotate(-27.565)" fill="#a8c837"/><rect width="3.317" height="3.325" transform="matrix(0.886, -0.463, 0.463, 0.886, 25.065, 51.732)" fill="#a8c837"/></g></g></g></svg>