<svg xmlns="http://www.w3.org/2000/svg" width="135.598" height="167.617" viewBox="0 0 135.598 167.617"><g transform="translate(-422.384 -1945.692)"><path d="M454,2018.66l33.984,41.809h36.465l-5.383-8.133s32.781-1.382,34.02-6.378,10.367-5.925,0-12.974-24.828-10.016-28.637-16.192-16.027-12.538-16.027-12.538Z" fill="#fdf7f7"/><g transform="translate(422.384 1945.692)"><path d="M247.345,81.971a1.974,1.974,0,0,0,2.76.5,2,2,0,0,0,.494-2.778c-10.608-15.328-21.264-45.639-11.747-65.035a2,2,0,0,0-.9-2.673,1.977,1.977,0,0,0-2.656.906c-5.826,11.874-4.394,26.154-2.167,36.043A99.459,99.459,0,0,0,247.345,81.971Z" transform="translate(-135.935 -11.775)" fill="#a8c837"/><path d="M157,175.4c13.057-24.235,1.832-45.932-12.422-65.818-2.831-3.951-6-7.982-9.071-11.88-3.6-4.58-7.331-9.316-10.579-14.009C114.047,67.953,109.38,43.853,113.316,23.72a39.154,39.154,0,0,1,1.545-6.424c.23-.674.515-1.513.941-2.957A1.984,1.984,0,1,0,112,13.2c-.4,1.364-.672,2.159-.891,2.8a42.022,42.022,0,0,0-1.684,6.949c-4.195,21.454.614,46.192,12.252,63.023,3.318,4.794,7.084,9.579,10.725,14.207,3.041,3.864,6.185,7.86,8.964,11.737,16,22.318,23.994,41.7,11.079,63.483H137.135a46.12,46.12,0,0,0,4.029-34.314c-3.106-12.1-10.376-23.516-17.078-33.092-2.83-4.045-6-8.174-9.071-12.167-3.6-4.69-7.331-9.54-10.579-14.347-11.039-16.35-15.43-50.75-8.542-66.924a2,2,0,0,0-1.041-2.62,1.98,1.98,0,0,0-2.6,1.048c-7.444,17.48-2.949,53.18,8.907,70.74,3.317,4.907,7.081,9.806,10.721,14.544,3.041,3.958,6.187,8.051,8.966,12.023,13.1,18.717,25.837,40.691,11.756,65.108h.277c15.431-22.617-20.12-42.458-34.467-62.468-2.779-3.878-5.924-7.873-8.965-11.736-3.641-4.627-7.406-9.411-10.724-14.2C67.083,70.167,62.274,45.433,66.469,23.981c.571-2.916.728-4.39.855-5.576.053-.493.1-.942.168-1.413-4.9,2.916-8.855,9.692-11.631,14.453l-.348.6a46.428,46.428,0,0,0-4.08,10.616c-1.54,5.272-3.132,10.723-7.58,14.724a71.607,71.607,0,0,1-10.7,7.966c-.279.171-.624.37-1.006.589-.834.478-3.05,1.748-3.42,2.36-.442.928.64,2.912,1.609,3.915.139.095.486.294.746.443,1.793,1.029,4.8,2.75,5.374,5.575a5.089,5.089,0,0,1-1.073,4.165A17.157,17.157,0,0,1,32.711,85c-.736.551-1.613,1.37-1.623,2.16-.018,1.339,2.223,3.114,3.427,4.066a16.944,16.944,0,0,1,1.344,1.134,2,2,0,0,1,.1,2.739,8.973,8.973,0,0,1-1.6,1.364,4.626,4.626,0,0,0-2.367,4.073,1.408,1.408,0,0,0,0,.242,6.157,6.157,0,0,0,.569.4,8.451,8.451,0,0,1,3.039,3.078c1.746,3.091.576,5.959-.364,8.264-1.184,2.9-2.04,5,.769,8.212,1.665,1.9,5.163,3.386,8.912,3.779a26.1,26.1,0,0,0,2.642.125h0a81.508,81.508,0,0,0,8.665-.662A82,82,0,0,1,65,123.3a18.54,18.54,0,0,1,7.192,1.184c6.451,2.7,14.545,11.56,20.618,22.566,2.9,5.253,9.072,17.934,7.649,28.346" transform="translate(-28.625 -11.776)" fill="#a8c837"/><path d="M252.138,366h.007" transform="translate(-147.035 -198.384)" fill="#a8c837"/></g></g></svg>