<svg xmlns="http://www.w3.org/2000/svg" width="160.422" height="115.388" viewBox="0 0 160.422 115.388"><path d="M27.11,43.816a106.911,106.911,0,0,1,26.282-6.557,92.3,92.3,0,0,1,27.23.491,63.62,63.62,0,0,1,25.266,10.166,58.426,58.426,0,0,1,18.035,20.128,73.506,73.506,0,0,0-8.569-10.352l-1.168-1.2-1.253-1.1c-.847-.745-1.693-1.508-2.523-2.2a60.961,60.961,0,0,0-5.436-3.965,67.834,67.834,0,0,0-24.741-9.4,104.787,104.787,0,0,0-26.671-.983,126.273,126.273,0,0,0-13.31,1.915A125.36,125.36,0,0,0,27.11,43.816Z" transform="translate(13.718 1.462)" fill="#a8c837"/><path d="M132.164,67.611a5.235,5.235,0,0,0-3.556,4.744c0,3.151,2.422,4.066,4.572,5.557-3-.457-7.4-.966-9.652-3.219,0,0,0,8.59,4.3,10.725A13.851,13.851,0,0,1,117.11,78.98s-2.151,4.3,2.134,10.742a13.834,13.834,0,0,1-10.719-6.438s-2.151,6.438,2.134,10.725c0,0-6.435,0-8.586-8.59a47.225,47.225,0,0,0-2.134,12.894,16.456,16.456,0,0,1-4.3-10.742S93.4,89.722,93.4,96.16c0,0-4.284-2.152-4.284-6.438,0,0-2.151,8.59-8.586,10.742a22.681,22.681,0,0,0,0-12.894S74.08,96.16,69.8,98.312c0,0,4.284-10.742,2.151-12.894,0,0-10.736,8.59-15.038,8.59,0,0,6.452-6.438,6.452-10.725,0,0-8.586,8.59-15.038,8.59,0,0,6.452-6.455,6.452-12.894,0,0-12.887,8.59-23.623,6.438,0,0,10.736-2.135,12.887-8.59,0,0-23.623,2.152-30.058-4.287,0,0,19.322,0,21.473-2.152,0,0-21.473,0-23.623-8.59,0,0,8.467,3.389,14.784,1.169a6.453,6.453,0,0,0,4.132-3.49A3.1,3.1,0,0,0,30,55.87c4.132,1.915,7.3,5.4,11.075,7.929A86.046,86.046,0,0,0,53.4,70.678c20.321,9.3,40.642,8.251,61.674,2.406C120.835,71.491,126.457,69.187,132.164,67.611Z" transform="translate(3.123 14.925)" fill="#a8c837"/><path d="M159.709,54.3s10.736-8.59-4.3-14.944c-12.7-5.456-26.417-8.9-39.626-12.843-26.519-8-62.267-24.432-84.874,2.016C18.021,43.557,5.151,56.45,3,62.889c0,0,26.841-33.293,54.731-35.428S147.906,63.973,159.709,54.3Z" transform="translate(-3 -14.086)" fill="#a8c837"/></svg>