<svg xmlns="http://www.w3.org/2000/svg" width="111.781" height="160.858" viewBox="0 0 111.781 160.858"><g transform="translate(-928 -1892.871)"><path d="M944.148,1973.3c.093,8.139.371,5.67.371,5.67s4.2,33.227,15.693,40.605c15.08,9.684,14.6,13.316,23.773,11.865s18.32-6.178,22.1-11.865,8.351-14.394,9.39-18.848,5.314-40.471,5.314-40.471l-44.678-13.843H944.148S944.056,1965.161,944.148,1973.3Z" fill="#fff"/><g transform="translate(928 1892.872)"><path d="M128.3,161.422l-31.752-9.506c-2.548-.762-4.4-3.773-4.408-7.163l-.021-10.218c6.639-5.736,12.122-14.223,15.95-23.895.12.005.243.021.362.021,5.655,0,9.917-5.993,11.7-12.226a11.447,11.447,0,0,0-.923-8.65,43.126,43.126,0,0,0,3.655-17.433V67.93a61.131,61.131,0,0,0-1.666-14.011c-.384-1.549-.83-3.061-1.321-4.5-4.287-12.5-11.837-21.653-21.328-26.486a25.946,25.946,0,0,0-50.441,0C38.614,27.77,31.064,36.928,26.777,49.423c-.494,1.439-.938,2.951-1.322,4.5A61.125,61.125,0,0,0,23.79,67.948v4.405a43.125,43.125,0,0,0,3.655,17.433,11.451,11.451,0,0,0-.923,8.65c1.783,6.233,6.043,12.226,11.7,12.226.115,0,.233-.016.348-.021,3.829,9.667,9.319,18.158,15.965,23.9l-.021,10.215c-.007,3.39-1.861,6.4-4.408,7.163l-31.753,9.506a1.286,1.286,0,0,0,.739,2.464l31.753-9.506c3.666-1.1,6.234-5.054,6.243-9.621l.017-8.165a27.508,27.508,0,0,0,16.22,5.622,27.5,27.5,0,0,0,16.219-5.623l.017,8.166c.01,4.567,2.578,8.524,6.245,9.621l31.752,9.506a1.286,1.286,0,1,0,.737-2.464ZM117.654,97.73c-1.434,5.008-4.611,9.846-8.609,10.309a87.1,87.1,0,0,0,4.578-19.959,6.362,6.362,0,0,1,3.045,2.458A8.763,8.763,0,0,1,117.654,97.73ZM29,97.73a8.76,8.76,0,0,1,.984-7.192,6.361,6.361,0,0,1,3.031-2.453,86.8,86.8,0,0,0,4.578,19.956C33.581,107.58,30.43,102.735,29,97.73Zm44.328,41.916c-21.506,0-38.188-32.2-38.188-59.853l.375-9.371c17.111,1.045,35.557-11.735,42.808-17.4a2.331,2.331,0,0,1,3.248.325c6.952,7.832,19.775,20.733,29.483,21.587l.459,4.81C111.511,107.445,94.831,139.646,73.325,139.646ZM69.79,109.254a2.629,2.629,0,0,1,.24-2.684c1.873-3.035,3.693-10.192,3.712-10.264a1.03,1.03,0,0,1,2,.5c-.077.306-1.917,7.537-3.955,10.84-.272.442-.185.616-.153.681.406.809,2.9,1.441,4.55,1.587a1.028,1.028,0,0,1-.089,2.052.818.818,0,0,1-.091,0C75.155,111.893,70.878,111.416,69.79,109.254ZM47.223,80.385a12.175,12.175,0,0,0-5.1,2.13h0a12.581,12.581,0,0,1,4.875-2.956,22.637,22.637,0,0,1,11.636-.83,13.661,13.661,0,0,1,5.805,2.524l.013.01a1.721,1.721,0,1,1-2.125,2.709,1.819,1.819,0,0,1-.21-.194,8.057,8.057,0,0,0-1.545-1.262,12.968,12.968,0,0,0-2.628-1.308A20.048,20.048,0,0,0,52.7,80.1,20.818,20.818,0,0,0,47.223,80.385Zm34.88,3.5a1.719,1.719,0,0,1-.111-2.431,1.673,1.673,0,0,1,.2-.188l.021-.016A13.663,13.663,0,0,1,88.02,78.73a22.638,22.638,0,0,1,11.636.83,12.582,12.582,0,0,1,4.875,2.956,12.177,12.177,0,0,0-5.1-2.13,20.816,20.816,0,0,0-5.474-.285,20.049,20.049,0,0,0-5.243,1.107,12.97,12.97,0,0,0-2.628,1.308,8.058,8.058,0,0,0-1.545,1.262A1.724,1.724,0,0,1,82.1,83.888ZM56.258,99.663A13.41,13.41,0,0,1,50.252,98.3a.858.858,0,0,1,.823-1.505,9.146,9.146,0,0,0,1.472.59,4.827,4.827,0,0,1,.641-7.375c-1.993.6-3.408,1.821-3.408,3.209a1.029,1.029,0,0,1-1.03,1.028,1.015,1.015,0,0,1-.983-.8c-.97-.116-3.346-.6-4.051-2.691a.858.858,0,0,1,1.626-.549c.4,1.184,2.068,1.476,2.677,1.544.046-.123.1-.243.158-.362-1.088-.4-2.515-1.191-2.785-2.648a.858.858,0,0,1,1.688-.311c.133.72,1.283,1.244,2.136,1.5a6.576,6.576,0,0,1,.567-.48,4.326,4.326,0,0,1-2.028-1.695.857.857,0,0,1,1.472-.881,3.765,3.765,0,0,0,2.659,1.413,11.055,11.055,0,0,1,3.969-.727c3.535,0,6.64,1.552,7.726,3.864a1.029,1.029,0,0,1-1.864.874,4.746,4.746,0,0,0-2.826-2.177,4.786,4.786,0,0,1,.261,7.47,12.521,12.521,0,0,0,2.536-.92.857.857,0,1,1,.758,1.537A13.9,13.9,0,0,1,56.258,99.663Zm46.677-8.91c-.705,2.088-3.083,2.576-4.052,2.691a1.014,1.014,0,0,1-.983.8,1.029,1.029,0,0,1-1.029-1.028c0-1.387-1.415-2.609-3.408-3.208a4.824,4.824,0,0,1,.654,7.359,9.536,9.536,0,0,0,1.457-.573.857.857,0,1,1,.825,1.5,13.42,13.42,0,0,1-6.007,1.368A13.9,13.9,0,0,1,84.205,98.2a.857.857,0,1,1,.758-1.537,12.361,12.361,0,0,0,2.526.912,4.786,4.786,0,0,1,.272-7.462,4.746,4.746,0,0,0-2.826,2.178,1.029,1.029,0,0,1-1.864-.874c1.084-2.312,4.19-3.864,7.725-3.864a11.056,11.056,0,0,1,3.97.727,3.731,3.731,0,0,0,2.658-1.413.857.857,0,0,1,1.472.881,4.329,4.329,0,0,1-2.028,1.7,6.58,6.58,0,0,1,.567.48c.853-.252,2-.777,2.138-1.5a.858.858,0,0,1,1.686.315c-.271,1.456-1.7,2.246-2.786,2.647.057.119.112.238.158.361.61-.071,2.282-.37,2.679-1.543a.858.858,0,0,1,1.626.549Zm-18.1,29.631c0,1.141-1.582,1.824-3.7,2.232,0,.053.018.1.018.157,0,2.8-4.9,3.213-7.827,3.213s-7.827-.417-7.827-3.213c0-.055.014-.1.018-.157-2.116-.408-3.7-1.091-3.7-2.232a1.03,1.03,0,0,1,1.99-.372,6.864,6.864,0,0,0,1.827.531,1.284,1.284,0,0,1,.5-.434L69.35,118.6a1.293,1.293,0,0,1,.548-.122,5.942,5.942,0,0,1,3.427.924,5.947,5.947,0,0,1,3.427-.924,1.29,1.29,0,0,1,.548.122l3.211,1.508a1.284,1.284,0,0,1,.5.434,6.863,6.863,0,0,0,1.827-.531,1.03,1.03,0,0,1,1.989.372ZM52.867,109.08a1.094,1.094,0,1,1-1.365-.727A1.092,1.092,0,0,1,52.867,109.08Zm2.71-3.133a1.094,1.094,0,1,1,1.365.727A1.092,1.092,0,0,1,55.577,105.947Zm3.055,2.522a1.094,1.094,0,1,1-1.365-.727A1.092,1.092,0,0,1,58.633,108.469Zm3.444-2.189a1.093,1.093,0,1,1,.728-1.363A1.094,1.094,0,0,1,62.076,106.28Zm-12.42.325a1.094,1.094,0,1,1-1.365-.727A1.092,1.092,0,0,1,49.657,106.605Zm46.219,3.111a1.094,1.094,0,1,1-.728-1.363A1.094,1.094,0,0,1,95.875,109.717Zm-4.8-3.769a1.094,1.094,0,1,1-.728-1.363A1.094,1.094,0,0,1,91.072,105.947Zm-.962,3.159a1.094,1.094,0,1,1-.728-1.363A1.094,1.094,0,0,1,90.11,109.106Zm-4.172-3.552a1.094,1.094,0,1,1-.728-1.363A1.094,1.094,0,0,1,85.938,105.553Zm13.148,1.688a1.094,1.094,0,1,1-.728-1.363A1.094,1.094,0,0,1,99.086,107.241Z" transform="translate(-17.435 -3.083)" fill="#a8c837"/></g></g></svg>